<svg width="512" height="512" viewBox="0 0 512 512" fill="none" xmlns="http://www.w3.org/2000/svg">
<rect width="512" height="512" rx="40" fill="url(#paint0_linear_179_88)"/>
<g clip-path="url(#clip0_179_88)">
<path d="M337.806 312.928C337.647 320.238 340.318 327.427 344.124 333.585C349.173 330.996 354.775 328.527 358.047 323.68C359.118 318.544 356.92 313.36 354.395 308.96C352.271 305.707 348.947 302.145 344.651 302.871C340.525 304.286 337.71 308.592 337.806 312.928ZM122.314 287.687C120.047 289.145 116.195 289.733 116.195 289.733C111.451 299.949 106.102 313.028 106.677 324.518C106.735 330.112 108.954 335.701 112.732 339.827C115.615 343.154 120.501 343.259 124.506 342.528C132.659 339.954 137.976 332.832 143.605 326.87C154.778 315.165 169.423 307.55 184.401 301.86C201.302 295.334 218.968 289.697 233.582 278.603C226.863 258.235 209.092 244.683 193.255 231.458C167.157 247.067 150.003 274.376 122.314 287.687ZM122.935 176.612C119.288 181.859 115.272 186.918 112.569 192.748C109.559 198.507 107.391 208.375 111.457 211.659C112.643 213.354 117.377 213.229 121.818 206.597C120.98 214.263 113.698 226.745 107.916 224.907C106.424 226.402 98.0393 244.052 95.9465 251.888C94.1862 259.646 94.2499 268.693 99.4089 275.198C104.279 280.03 112.637 280.623 118.361 276.93C143.031 262.715 162.066 241.1 182.925 222.159C162.909 207 142.988 191.717 122.935 176.612ZM272.671 93.2307C278.289 92.1632 285.372 94.0572 287.581 99.8472C288.977 107.237 285.352 114.42 281.778 120.673C273.519 135.066 260.798 146.056 250.578 158.955C250.067 159.503 249.503 159.981 248.887 160.403C249.461 156.244 251.711 152.608 253.799 149.05C261.209 137.741 271.833 129.066 279.917 118.299C283.295 114.262 280.64 106.742 275.112 106.583C256.502 105.711 238.905 112.762 221.551 118.468C217.54 120.046 213.229 120.716 209.281 122.462C180.886 133.783 151.468 143.445 125.443 159.802C149.634 176.912 174.14 193.57 198.362 210.638C199.31 211.253 200.406 212.537 201.592 211.652C211.416 206.706 222.541 204.59 233.503 205.211C230.257 188.58 223.174 172.691 222.447 155.587C222.02 149.676 222.778 143.209 226.573 138.43C230.641 146.308 234.436 154.33 238.315 162.302C236.312 161.44 234.294 160.618 232.207 159.992C232.755 171.249 235.2 182.507 239.985 192.744C243.833 201.444 250.948 208.29 258.848 213.385C261.077 214.637 261.119 217.489 261.304 219.737C261.293 223.315 261.677 227.169 259.964 230.453C250.458 221.085 236.429 216.4 223.221 218.901C220.539 219.485 217.703 219.958 215.443 221.615C232.571 235.063 249.266 249.083 265.599 263.493C272.044 269.252 278.447 275.787 286.864 278.503C283.754 240.026 277.146 201.938 273.657 163.507C272.898 159.755 275.085 156.413 276.729 153.234C283.391 163.118 289.287 173.902 291.396 185.764C288.914 184.033 286.711 181.939 284.207 180.239C287.333 212.833 292.64 245.173 295.944 277.745C296.034 278.529 296.129 279.324 296.435 280.067C301.499 282.466 307.244 280.434 312.007 278.262C315.365 276.578 318.89 274.55 320.931 271.298C319.597 257.23 317.946 243.168 315.934 229.168C312.103 200.243 308.203 171.323 304.329 142.403C303.154 130.024 300.134 117.914 299.016 105.542C299.338 101.705 300.645 97.9626 302.247 94.4736C307.96 104.994 315.138 115.178 317.23 127.199C314.617 125.526 312.371 123.345 309.736 121.699C309.473 137.156 312.808 152.366 314.575 167.66C318.658 197.491 322.758 227.316 326.832 257.152C328.36 266.035 326.812 275.893 321.072 283.061C315.423 289.619 307.097 292.739 299.148 295.513C299.929 312.796 300.672 330.907 293.7 347.175C294.084 329.68 292.476 312.208 290.079 294.898C277.557 290.814 267.738 281.651 258.552 272.609C246.004 260.946 233.836 248.473 219.053 239.605C218.625 241.183 220.286 242.058 221.129 243.115C228.676 251.342 235.437 261.094 236.918 272.414C237.161 277.645 237.298 283.214 234.853 288.008C231.917 292.919 227.005 296.25 222.062 298.908C207.843 306.881 191.484 309.597 176.706 316.265C166.904 320.423 157.713 326.438 150.83 334.632C149.871 335.813 148.632 337.016 148.717 338.669C148.29 348.026 149.692 357.958 155.184 365.795C159.837 372.547 167.521 376.59 175.378 378.379C186.546 380.821 198.536 380.195 209.25 376.105C212.454 367.578 215.205 358.848 219.453 350.753C217.066 347.663 213.667 345.475 211.448 342.265C211.521 338.765 214.368 335.948 216.697 333.569C217.93 331.901 219.759 333.46 221.182 333.991C228.581 327.717 235.859 320.944 240.749 312.465C234.299 310.145 235.316 301.982 238.299 297.266C239.606 294.65 243.727 293.276 245.604 296.056C249.514 300.256 247.649 306.191 247.263 311.208C249.367 313.307 251.533 316.56 248.798 319.175C246.989 318.07 245.825 316.265 244.223 314.923C237.967 322.45 230.715 329.091 223.405 335.554C225.229 338.217 228.454 339.933 229.672 342.964C228.37 348.075 223.743 351.502 221.277 356.058C218.33 361.579 215.701 367.589 215.664 373.957C235.227 366.273 254.183 356.122 269.541 341.585C270.532 340.48 272.392 339.36 271.469 337.659C267.158 324.76 260.497 312.834 254.973 300.44C253.915 297.818 251.97 295.183 252.697 292.213C253.229 288.871 253.61 284.981 256.55 282.793C261.999 288.84 267.444 294.893 272.866 300.96C273.146 301.234 273.651 302.281 272.818 302.156C270.047 303.007 268.002 300.382 265.372 300.139C266.552 308.659 272.281 315.534 274.98 323.532C277.325 329.933 277.825 337.207 275.232 343.617C272.508 351.032 266.873 356.922 261.014 362.021C247.116 373.504 230.552 381.195 213.845 387.674C212.781 395.447 214.72 404.04 220.154 409.888C223.833 413.84 229.946 414.493 234.631 411.987C249.936 404.073 258.969 388.837 270.179 376.436C277.704 367.763 287.132 360.832 297.415 355.768C310.236 349.37 323.934 344.874 336.561 338.048C333.393 324.881 330.022 309.913 337.009 297.361C339.881 291.455 347.624 288.26 353.61 291.377C357.963 294.635 360.646 299.734 362.232 304.834C366.733 317.539 361.827 332.038 352.45 341.238C351.297 342.539 349.637 343.459 348.836 345.027C351.439 349.79 356.209 353.406 361.526 354.574C371.698 357 382.443 352.716 389.7 345.554C386.528 306.176 380.836 267.051 376.067 227.842C372.325 198.775 368.772 169.67 364.968 140.624C365.269 137.02 367.234 133.851 368.863 130.704C375.698 140.734 380.488 152.14 383.144 163.96C380.114 163.066 378.739 160.061 376.546 158.076C378.259 191.069 382.838 223.821 386.775 256.604C389.294 278.019 391.851 299.429 394.528 320.828C395.592 327.964 395.445 335.296 394.311 342.412C393.031 350.954 388.863 359.68 380.879 363.806C372.983 367.311 363.533 369.694 355.281 365.943C348.525 362.61 344.74 355.679 341.304 349.327C325.062 354.826 309.531 362.238 294.273 370.015C277.972 378.579 267.669 394.389 255.611 407.672C250.147 413.11 245.525 419.758 237.329 421.872C237.329 421.872 228.381 423.28 219.985 416.398C212.654 410.672 209.845 401.204 208.891 392.326C209.002 389.383 205.498 391.073 203.748 391.099C188.638 393.168 171.089 394.899 158.377 384.7C146.029 374.163 144.39 356.726 144.485 341.558C138.503 344.791 134.377 351.774 126.988 352.064C114.303 352.458 104.269 340.717 102.555 328.902C100.479 315.071 106.903 302.087 111.631 289.503C98.7177 287.108 94.1182 277.481 94.1182 277.481C88.9935 269.787 90.1127 257.547 90.1127 257.547C92.0414 246.256 96.342 235.464 102.45 225.774C103.156 224.485 104.368 223.095 103.662 221.559C101.886 216.295 101.359 210.558 102.814 205.149C105.66 193.196 113.75 183.48 121.001 173.891C119.304 166.297 120.838 158.312 123.737 151.207C124.574 148.781 127.346 148.119 129.297 146.84C173.85 121.462 222.895 104.916 272.671 93.2307Z" fill="#4D3003"/>
<path d="M353.389 208.66C353.585 208.466 346.274 156.057 343.607 133.843C346.531 134.952 348.209 137.906 350.922 139.384C348.546 126.969 342.138 115.89 335.934 105.049C333.446 108.402 332.32 112.544 331.766 116.612C337.81 147.758 349.978 242.444 350.997 255.965C357.362 241.069 355.417 224.271 353.389 208.66Z" fill="#4D3003"/>
<path d="M171.784 333.99C187.078 327.727 202.23 321.122 217.345 314.445C216.929 317.765 214.288 320.512 211.337 321.891C197.049 328.706 181.84 333.669 168.233 341.864C169.739 344.459 172.591 346.905 171.674 350.232C168.865 350.811 167.173 348.249 165.466 346.516C164.08 341.523 167.031 335.937 171.784 333.99Z" fill="#4D3003"/>
<path d="M243.991 331.954C243.29 334.681 242.6 337.885 243.817 340.507C246.937 342.365 250.625 340.132 253.119 338.127C251.401 334.774 247.997 331.711 243.991 331.954ZM243.564 326.628C248.697 326.785 254.404 329.664 255.754 334.959C256.744 339.542 253.072 343.595 249.246 345.533C246.278 346.664 241.688 346.069 240.924 342.396C240.924 337.058 241.867 331.691 243.564 326.628Z" fill="#4D3003"/>
<path d="M285.958 135.744C285.35 138.111 284.75 140.893 285.808 143.169C288.516 144.782 291.718 142.845 293.883 141.104C292.391 138.193 289.436 135.533 285.958 135.744ZM285.588 131.119C290.044 131.257 294.999 133.757 296.172 138.352C297.03 142.333 293.842 145.852 290.521 147.533C287.944 148.516 283.958 147.999 283.295 144.809C283.295 140.176 284.115 135.514 285.588 131.119Z" fill="#4D3003"/>
<path d="M138.328 207.694C135.921 210.856 135.42 214.004 136.019 216.934C136.541 219.492 139.264 221.608 144.108 222.906C141.484 226.871 137.178 231.937 131.04 237.383C126.218 241.796 121.03 246.283 116.208 250.696C114.967 252.092 114.675 252.53 114.75 252.898L114.825 253.265C115.191 253.189 116.216 252.599 117.239 252.008C124.334 247.515 128.064 245.227 128.723 244.715C132.012 242.135 135.592 239.121 139.316 234.932C142.381 231.261 145.08 227.663 146.897 223.482C149.028 224.571 150.718 225.37 151.6 225.952C152.833 222.652 153.557 220.595 153.333 219.498C152.376 218.55 150.686 217.751 148.264 217.102C148.69 213.586 148.825 210.512 148.301 207.948C147.779 205.39 146.305 203.783 144.766 203.719C144.285 203.629 143.8 203.632 143.305 203.733C141.767 204.047 140.151 205.307 138.328 207.694ZM139.375 212.821C139.3 212.454 139.591 212.01 140.175 211.132C141.199 210.54 141.857 210.028 142.223 209.953C143.322 209.729 144.205 210.312 144.944 212.063C145.535 213.085 145.468 214.625 145.401 216.164C141.363 215.079 139.6 213.918 139.375 212.821Z" fill="#4D3003"/>
<mask id="mask0_179_88" style="mask-type:luminance" maskUnits="userSpaceOnUse" x="114" y="203" width="40" height="51">
<path d="M138.328 207.694C135.921 210.856 135.42 214.004 136.019 216.934C136.541 219.492 139.264 221.608 144.108 222.906C141.484 226.871 137.178 231.937 131.04 237.383C126.218 241.796 121.03 246.283 116.208 250.696C114.967 252.092 114.675 252.53 114.75 252.898L114.825 253.265C115.191 253.189 116.216 252.599 117.239 252.008C124.334 247.515 128.064 245.227 128.723 244.715C132.012 242.135 135.592 239.121 139.316 234.932C142.381 231.261 145.08 227.663 146.897 223.482C149.028 224.571 150.718 225.37 151.6 225.952C152.833 222.652 153.557 220.595 153.333 219.498C152.376 218.55 150.686 217.751 148.264 217.102C148.69 213.586 148.825 210.512 148.301 207.948C147.779 205.39 146.305 203.783 144.766 203.719C144.285 203.629 143.8 203.632 143.305 203.733C141.767 204.047 140.151 205.307 138.328 207.694ZM139.375 212.821C139.3 212.454 139.591 212.01 140.175 211.132C141.199 210.54 141.857 210.028 142.223 209.953C143.322 209.729 144.205 210.312 144.944 212.063C145.535 213.085 145.468 214.625 145.401 216.164C141.363 215.079 139.6 213.918 139.375 212.821Z" fill="white"/>
</mask>
<g mask="url(#mask0_179_88)">
<path d="M106.245 211.288L149.838 202.402L158.419 244.378L114.825 253.265L106.245 211.288Z" fill="#4D3003"/>
</g>
<path d="M357.693 183.421C355.362 185.841 354.633 188.437 354.848 190.955C355.038 193.154 357.116 195.197 361.057 196.761C358.464 199.833 354.351 203.668 348.665 207.641C344.182 210.877 339.385 214.137 334.904 217.373C333.724 218.423 333.435 218.762 333.464 219.079L333.49 219.393C333.805 219.367 334.724 218.972 335.641 218.573C342.039 215.496 345.396 213.938 346 213.572C349.014 211.728 352.317 209.545 355.854 206.392C358.789 203.609 361.408 200.849 363.342 197.517C365.025 198.641 366.366 199.477 367.049 200.051C368.409 197.399 369.218 195.745 369.138 194.801C368.427 193.91 367.087 193.075 365.116 192.294C365.819 189.382 366.232 186.815 366.044 184.61C365.856 182.41 364.776 180.917 363.489 180.712C363.096 180.59 362.687 180.544 362.262 180.582C360.939 180.695 359.459 181.595 357.693 183.421ZM358.071 187.828C358.044 187.513 358.331 187.169 358.908 186.489C359.826 186.092 360.428 185.726 360.743 185.699C361.688 185.618 362.372 186.194 362.822 187.737C363.218 188.653 363.011 189.941 362.804 191.226C359.519 189.919 358.152 188.772 358.071 187.828Z" fill="#4D3003"/>
<mask id="mask1_179_88" style="mask-type:luminance" maskUnits="userSpaceOnUse" x="333" y="180" width="37" height="40">
<path d="M357.693 183.421C355.362 185.841 354.633 188.437 354.848 190.955C355.038 193.154 357.116 195.197 361.057 196.761C358.464 199.833 354.351 203.668 348.665 207.641C344.182 210.877 339.385 214.137 334.904 217.373C333.724 218.423 333.435 218.762 333.464 219.079L333.49 219.393C333.805 219.367 334.724 218.972 335.641 218.573C342.039 215.496 345.396 213.938 346 213.572C349.014 211.728 352.317 209.545 355.854 206.392C358.789 203.609 361.408 200.849 363.342 197.517C365.025 198.641 366.366 199.477 367.049 200.051C368.409 197.399 369.218 195.745 369.138 194.801C368.427 193.91 367.087 193.075 365.116 192.294C365.819 189.382 366.232 186.815 366.044 184.61C365.856 182.41 364.776 180.917 363.489 180.712C363.096 180.59 362.687 180.544 362.262 180.582C360.939 180.695 359.459 181.595 357.693 183.421ZM358.071 187.828C358.044 187.513 358.331 187.169 358.908 186.489C359.826 186.092 360.428 185.726 360.743 185.699C361.688 185.618 362.372 186.194 362.822 187.737C363.218 188.653 363.011 189.941 362.804 191.226C359.519 189.919 358.152 188.772 358.071 187.828Z" fill="white"/>
</mask>
<g mask="url(#mask1_179_88)">
<path d="M330.398 183.304L367.878 180.102L370.971 216.191L333.49 219.393L330.398 183.304Z" fill="#4D3003"/>
</g>
<path d="M246.216 179.741C248.617 179.072 251.164 179.771 253.702 182.119C256.458 184.404 258.802 187.745 260.953 192.078C261.075 192.514 261.136 192.732 261.196 192.949C261.415 192.888 261.415 192.888 261.415 192.888C261.354 192.671 261.511 192.392 261.39 191.955C261.034 189.002 261.03 184.774 260.817 178.962C261.467 174.553 262.726 172.322 264.69 171.776C265.563 171.532 266.835 171.882 268.074 172.947C269.252 173.793 269.931 174.543 270.115 175.196C270.296 175.85 270.262 176.566 270.287 177.498C270.216 178.926 269.963 179.702 269.525 179.823C269.307 179.886 268.749 179.571 267.632 178.942C266.734 178.253 265.958 177.999 265.085 178.242C263.339 178.729 262.908 183.077 263.572 191.348C263.892 195.017 263.906 197.597 263.679 199.304C263.266 200.359 263.013 201.134 262.577 201.256C262.359 201.316 262.019 200.942 261.713 199.852C261.348 198.544 259.744 196.172 257.061 192.458C254.219 189.021 252.58 187.364 251.925 187.546C251.489 187.668 251.271 187.729 251.174 188.225C251.017 188.504 250.859 188.783 250.205 188.966C249.332 189.208 248.276 188.798 246.881 188.012C245.267 187.288 244.587 186.538 244.404 185.884C244.343 185.666 244.536 184.672 244.922 182.686C245.526 180.638 245.998 179.801 246.216 179.741Z" fill="#4D3003"/>
<path d="M189.847 175.841C192.248 175.172 194.795 175.872 197.333 178.219C200.088 180.504 202.432 183.844 204.584 188.177C204.706 188.614 204.766 188.831 204.827 189.049C205.045 188.989 205.045 188.989 205.045 188.989C204.985 188.77 205.142 188.491 205.02 188.056C204.665 185.101 204.66 180.875 204.448 175.061C205.097 170.652 206.356 168.423 208.321 167.875C209.193 167.632 210.467 167.982 211.705 169.046C212.883 169.893 213.563 170.643 213.745 171.297C213.928 171.95 213.892 172.665 213.917 173.598C213.846 175.027 213.593 175.802 213.156 175.924C212.938 175.985 212.38 175.67 211.263 175.041C210.365 174.352 209.588 174.099 208.716 174.343C206.97 174.828 206.538 179.176 207.203 187.447C207.522 191.116 207.537 193.696 207.308 195.404C206.898 196.459 206.643 197.235 206.208 197.356C205.989 197.417 205.649 197.041 205.345 195.952C204.979 194.645 203.376 192.273 200.692 188.557C197.85 185.121 196.21 183.464 195.556 183.647C195.119 183.767 194.901 183.828 194.804 184.325C194.647 184.603 194.49 184.883 193.835 185.065C192.962 185.308 191.907 184.898 190.511 184.112C188.897 183.387 188.218 182.637 188.035 181.983C187.974 181.765 188.167 180.771 188.552 178.785C189.157 176.738 189.629 175.902 189.847 175.841Z" fill="#4D3003"/>
<path d="M141.052 285.52C143.452 284.852 146 285.551 148.537 287.897C151.293 290.183 153.637 293.523 155.789 297.857C155.91 298.292 155.971 298.51 156.032 298.729C156.25 298.668 156.25 298.668 156.25 298.668C156.189 298.449 156.346 298.171 156.225 297.735C155.87 294.78 155.865 290.554 155.652 284.74C156.302 280.33 157.561 278.102 159.525 277.554C160.398 277.311 161.671 277.66 162.91 278.725C164.087 279.572 164.767 280.321 164.949 280.976C165.133 281.63 165.097 282.344 165.122 283.277C165.051 284.706 164.797 285.481 164.361 285.603C164.143 285.664 163.584 285.349 162.468 284.721C161.57 284.031 160.793 283.778 159.92 284.022C158.175 284.507 157.743 288.855 158.407 297.126C158.726 300.797 158.742 303.376 158.513 305.084C158.102 306.138 157.848 306.914 157.412 307.035C157.194 307.096 156.853 306.72 156.549 305.631C156.184 304.324 154.581 301.952 151.896 298.236C149.054 294.8 147.415 293.143 146.761 293.326C146.324 293.447 146.106 293.508 146.009 294.005C145.852 294.284 145.695 294.562 145.04 294.744C144.167 294.988 143.111 294.576 141.716 293.791C140.102 293.066 139.422 292.316 139.239 291.662C139.179 291.444 139.372 290.452 139.757 288.464C140.361 286.417 140.833 285.581 141.052 285.52Z" fill="#4D3003"/>
<path d="M177.466 349.555C179.866 348.886 182.413 349.585 184.951 351.933C187.707 354.219 190.051 357.559 192.202 361.892C192.324 362.326 192.385 362.546 192.446 362.764C192.664 362.702 192.664 362.702 192.664 362.702C192.603 362.485 192.76 362.206 192.639 361.769C192.284 358.815 192.279 354.588 192.066 348.776C192.716 344.367 193.974 342.136 195.939 341.59C196.812 341.345 198.085 341.696 199.323 342.76C200.501 343.607 201.181 344.357 201.363 345.01C201.547 345.664 201.51 346.379 201.536 347.311C201.465 348.74 201.211 349.516 200.774 349.637C200.556 349.698 199.998 349.385 198.882 348.756C197.984 348.067 197.207 347.813 196.334 348.056C194.588 348.543 194.156 352.891 194.821 361.162C195.14 364.831 195.156 367.411 194.927 369.118C194.516 370.174 194.262 370.948 193.826 371.071C193.607 371.13 193.267 370.756 192.963 369.666C192.597 368.358 190.994 365.986 188.31 362.272C185.468 358.835 183.829 357.179 183.175 357.36C182.738 357.482 182.519 357.543 182.423 358.04C182.266 358.318 182.109 358.597 181.454 358.78C180.581 359.022 179.525 358.613 178.129 357.826C176.516 357.102 175.836 356.35 175.653 355.698C175.593 355.48 175.785 354.486 176.171 352.5C176.775 350.452 177.247 349.616 177.466 349.555Z" fill="#4D3003"/>
<path d="M306.155 376.494C308.554 375.824 311.103 376.524 313.639 378.872C316.395 381.157 318.739 384.497 320.892 388.83C321.012 389.265 321.073 389.484 321.134 389.702C321.352 389.641 321.352 389.641 321.352 389.641C321.291 389.424 321.45 389.145 321.327 388.708C320.973 385.754 320.968 381.526 320.755 375.714C321.404 371.305 322.663 369.075 324.627 368.528C325.5 368.284 326.774 368.635 328.012 369.699C329.19 370.546 329.87 371.296 330.052 371.949C330.235 372.603 330.199 373.318 330.224 374.249C330.153 375.678 329.9 376.455 329.464 376.575C329.244 376.637 328.686 376.323 327.57 375.694C326.672 375.005 325.896 374.752 325.023 374.995C323.277 375.482 322.846 379.829 323.509 388.1C323.829 391.77 323.845 394.349 323.616 396.057C323.205 397.112 322.951 397.887 322.514 398.009C322.296 398.07 321.956 397.694 321.652 396.605C321.287 395.296 319.683 392.925 316.998 389.21C314.156 385.773 312.518 384.117 311.863 384.298C311.426 384.421 311.208 384.482 311.112 384.978C310.954 385.257 310.797 385.536 310.142 385.718C309.269 385.961 308.214 385.551 306.819 384.765C305.205 384.04 304.524 383.289 304.343 382.636C304.281 382.419 304.474 381.425 304.86 379.438C305.463 377.391 305.935 376.555 306.155 376.494Z" fill="#4D3003"/>
<path d="M169.922 162.746C169.922 162.501 170.167 162.257 170.167 162.013C170.411 162.013 170.411 162.013 170.411 162.013C170.656 162.257 170.656 162.501 170.411 162.746C169.188 169.829 166.987 173.493 164.297 173.493C161.116 173.493 159.649 170.807 159.649 165.677C159.649 159.326 161.361 152.731 165.03 145.646C166.008 143.937 166.498 143.205 166.743 143.205C166.743 143.449 166.498 144.426 166.008 146.135C163.563 153.219 162.34 158.349 162.34 161.035C162.34 165.187 163.318 167.143 165.519 167.143C166.743 167.143 168.21 165.677 169.922 162.746Z" fill="#4D3003"/>
<path d="M197.84 155.635C197.84 155.39 198.085 155.146 198.085 154.902C198.329 154.902 198.329 154.902 198.329 154.902C198.574 155.146 198.574 155.39 198.329 155.635C197.106 162.719 194.905 166.383 192.214 166.383C189.035 166.383 187.567 163.696 187.567 158.566C187.567 152.216 189.279 145.62 192.948 138.537C193.926 136.826 194.416 136.094 194.66 136.094C194.66 136.338 194.416 137.314 193.926 139.025C191.48 146.108 190.257 151.238 190.257 153.925C190.257 158.078 191.236 160.031 193.437 160.031C194.66 160.031 196.128 158.566 197.84 155.635Z" fill="#4D3003"/>
<path d="M250.081 135.585C250.081 135.373 250.293 135.162 250.293 134.951C250.504 134.951 250.504 134.951 250.504 134.951C250.716 135.162 250.716 135.373 250.504 135.585C249.445 141.718 247.54 144.889 245.211 144.889C242.458 144.889 241.188 142.563 241.188 138.122C241.188 132.625 242.67 126.916 245.846 120.783C246.693 119.303 247.117 118.669 247.329 118.669C247.329 118.882 247.117 119.727 246.693 121.206C244.575 127.339 243.517 131.778 243.517 134.106C243.517 137.699 244.364 139.392 246.269 139.392C247.329 139.392 248.598 138.122 250.081 135.585Z" fill="#4D3003"/>
<path d="M330.523 164.364C330.493 164.154 330.675 163.916 330.646 163.707C330.856 163.679 330.856 163.679 330.856 163.679C331.095 163.859 331.124 164.068 330.943 164.306C330.73 170.525 329.276 173.926 326.968 174.244C324.241 174.618 322.666 172.486 322.059 168.088C321.31 162.642 321.998 156.783 324.308 150.277C324.946 148.696 325.279 148.008 325.489 147.98C325.517 148.19 325.423 149.057 325.205 150.58C323.945 156.943 323.501 161.487 323.818 163.791C324.308 167.352 325.379 168.913 327.266 168.653C328.315 168.509 329.401 167.08 330.523 164.364Z" fill="#4D3003"/>
<path d="M305.99 217.351C305.94 217.125 306.115 216.851 306.067 216.626C306.291 216.577 306.291 216.577 306.291 216.577C306.567 216.753 306.615 216.978 306.44 217.252C306.748 224.03 305.463 227.852 302.982 228.395C300.052 229.039 298.154 226.858 297.114 222.131C295.827 216.277 296.066 209.851 298.013 202.579C298.568 200.806 298.871 200.031 299.096 199.982C299.145 200.206 299.118 201.156 299.013 202.831C298.195 209.856 298.109 214.832 298.653 217.308C299.494 221.135 300.794 222.74 302.822 222.294C303.949 222.046 305.006 220.4 305.99 217.351Z" fill="#4D3003"/>
<path d="M370.068 238.793C370.047 238.565 370.256 238.314 370.234 238.084C370.464 238.064 370.464 238.064 370.464 238.064C370.715 238.272 370.737 238.502 370.527 238.753C369.988 245.515 368.234 249.148 365.706 249.378C362.717 249.65 361.107 247.252 360.665 242.431C360.118 236.461 361.16 230.117 363.999 223.144C364.772 221.453 365.168 220.722 365.398 220.702C365.419 220.932 365.273 221.871 364.96 223.519C363.271 230.386 362.563 235.312 362.795 237.839C363.152 241.741 364.239 243.494 366.308 243.305C367.458 243.2 368.71 241.696 370.068 238.793Z" fill="#4D3003"/>
<path d="M380.018 328.457C379.998 328.227 380.206 327.976 380.186 327.746C380.416 327.726 380.416 327.726 380.416 327.726C380.667 327.934 380.687 328.164 380.479 328.415C379.938 335.177 378.186 338.81 375.656 339.04C372.668 339.312 371.057 336.914 370.617 332.093C370.07 326.125 371.11 319.779 373.951 312.806C374.722 311.115 375.118 310.384 375.349 310.364C375.369 310.594 375.223 311.533 374.911 313.181C373.222 320.048 372.515 324.974 372.745 327.501C373.103 331.403 374.19 333.155 376.259 332.967C377.408 332.862 378.662 331.358 380.018 328.457Z" fill="#4D3003"/>
<path d="M421.489 241.379C421.459 241.182 421.625 240.955 421.595 240.758C421.793 240.728 421.793 240.728 421.793 240.728C422.02 240.896 422.05 241.093 421.882 241.32C421.76 247.179 420.432 250.4 418.263 250.727C415.7 251.114 414.189 249.127 413.564 244.992C412.79 239.872 413.365 234.346 415.459 228.19C416.039 226.692 416.345 226.041 416.541 226.011C416.57 226.209 416.494 227.026 416.307 228.464C415.199 234.473 414.838 238.756 415.167 240.922C415.674 244.27 416.7 245.726 418.475 245.458C419.461 245.31 420.465 243.949 421.489 241.379Z" fill="#4D3003"/>
<path d="M273.635 245.818C273.616 245.607 273.809 245.376 273.789 245.166C274 245.145 274 245.145 274 245.145C274.232 245.338 274.251 245.549 274.058 245.779C273.561 252.006 271.947 255.351 269.619 255.564C266.867 255.814 265.384 253.606 264.978 249.167C264.475 243.671 265.434 237.829 268.047 231.408C268.759 229.851 269.124 229.18 269.335 229.159C269.354 229.37 269.221 230.236 268.933 231.754C267.378 238.078 266.726 242.613 266.939 244.937C267.268 248.531 268.27 250.145 270.174 249.971C271.232 249.874 272.386 248.49 273.635 245.818Z" fill="#4D3003"/>
<path d="M132.636 314.836C132.617 314.624 132.809 314.393 132.79 314.182C133.001 314.163 133.001 314.163 133.001 314.163C133.232 314.355 133.252 314.567 133.06 314.797C132.562 321.024 130.948 324.368 128.619 324.58C125.868 324.832 124.385 322.623 123.978 318.184C123.476 312.689 124.434 306.845 127.048 300.426C127.759 298.869 128.125 298.197 128.336 298.177C128.356 298.388 128.221 299.253 127.934 300.772C126.378 307.094 125.726 311.63 125.939 313.955C126.268 317.549 127.27 319.162 129.175 318.989C130.233 318.892 131.387 317.508 132.636 314.836Z" fill="#4D3003"/>
<path d="M140.572 365.331C140.556 365.159 140.712 364.97 140.697 364.798C140.869 364.783 140.869 364.783 140.869 364.783C141.057 364.939 141.073 365.112 140.916 365.299C140.512 370.367 139.198 373.09 137.303 373.262C135.064 373.467 133.856 371.669 133.526 368.056C133.116 363.583 133.897 358.828 136.024 353.604C136.603 352.336 136.9 351.79 137.073 351.772C137.088 351.944 136.979 352.649 136.745 353.884C135.479 359.03 134.948 362.721 135.121 364.614C135.389 367.539 136.204 368.852 137.755 368.71C138.616 368.632 139.555 367.505 140.572 365.331Z" fill="#4D3003"/>
<path d="M201.085 408.316C201.069 408.144 201.226 407.956 201.21 407.784C201.382 407.769 201.382 407.769 201.382 407.769C201.57 407.925 201.586 408.097 201.43 408.285C201.025 413.352 199.711 416.074 197.816 416.247C195.576 416.453 194.369 414.654 194.039 411.042C193.629 406.568 194.41 401.815 196.537 396.589C197.115 395.322 197.413 394.774 197.585 394.758C197.601 394.93 197.491 395.635 197.257 396.87C195.991 402.016 195.461 405.707 195.634 407.599C195.902 410.525 196.717 411.838 198.268 411.696C199.129 411.618 200.068 410.491 201.085 408.316Z" fill="#4D3003"/>
<path d="M349.14 381.082C349.121 380.875 349.311 380.648 349.29 380.44C349.499 380.421 349.499 380.421 349.499 380.421C349.726 380.611 349.745 380.818 349.557 381.044C349.068 387.168 347.48 390.456 345.19 390.665C342.484 390.912 341.027 388.739 340.627 384.376C340.132 378.97 341.075 373.226 343.646 366.915C344.345 365.384 344.704 364.721 344.912 364.703C344.931 364.911 344.8 365.761 344.516 367.254C342.986 373.472 342.345 377.931 342.555 380.217C342.878 383.751 343.862 385.336 345.737 385.166C346.776 385.07 347.911 383.71 349.14 381.082Z" fill="#4D3003"/>
<path d="M321.409 319.338C321.214 320.895 320.63 321.869 320.044 322.453C318.095 323.621 313.416 326.735 306.399 331.602C306.205 331.796 305.814 331.99 305.424 332.38C305.23 332.186 305.23 332.186 305.23 331.99L305.62 329.46C305.62 328.876 306.789 327.707 309.128 325.956C306.399 324.982 305.035 323.814 305.035 322.257C305.035 320.505 305.62 318.948 307.18 317.197C309.909 313.692 312.247 312.136 314.197 312.136C315.757 312.136 316.73 312.913 316.73 314.861C316.73 316.029 316.145 317.197 315.366 318.754C315.17 319.143 314.782 318.948 314.586 318.558C314.197 317.391 313.416 317.002 312.637 317.002C311.857 317.002 311.078 317.197 310.103 317.974C309.324 318.558 308.739 319.143 308.739 319.532C308.739 320.116 309.324 320.7 310.493 321.284C311.663 321.869 312.442 322.257 313.222 322.257C313.807 322.257 314.976 321.869 316.536 320.895C317.705 320.116 318.68 319.338 319.849 318.754C320.824 318.17 321.214 317.974 321.409 318.17C321.603 318.17 321.603 318.558 321.409 319.338Z" fill="#4D3003"/>
<path d="M191.85 269.023L195.923 260.618C196.194 260.075 196.466 259.804 197.009 259.804C197.552 259.804 199.725 261.159 203.798 263.872C207.871 266.583 209.772 268.211 209.772 268.753C209.772 270.38 208.143 274.176 204.613 279.871C204.07 280.684 203.527 280.955 203.255 280.414C199.725 277.974 195.651 275.261 191.307 272.278C189.949 275.804 188.319 278.515 186.962 280.955C186.418 281.499 186.147 281.77 185.604 281.499C181.531 278.244 177.457 275.532 173.384 272.821C173.112 272.821 173.112 272.55 173.384 272.007L178.272 261.432C178.815 260.888 179.087 260.618 179.358 260.618C179.901 260.618 181.802 261.702 185.332 264.143C188.591 266.312 190.764 267.938 191.85 269.023Z" fill="#4D3003"/>
<path d="M352.727 264.606L356.801 256.199C357.072 255.657 357.344 255.386 357.887 255.386C358.43 255.386 360.602 256.742 364.676 259.453C368.748 262.166 370.649 263.792 370.649 264.335C370.649 265.962 369.021 269.759 365.491 275.453C364.947 276.267 364.405 276.538 364.132 275.995C360.602 273.555 356.528 270.844 352.184 267.86C350.826 271.385 349.198 274.098 347.839 276.538C347.296 277.08 347.025 277.352 346.481 277.08C342.408 273.826 338.335 271.115 334.262 268.404C333.99 268.404 333.99 268.131 334.262 267.589L339.149 257.013C339.693 256.471 339.964 256.199 340.235 256.199C340.779 256.199 342.68 257.284 346.21 259.725C349.469 261.895 351.641 263.521 352.727 264.606Z" fill="#4D3003"/>
<path d="M227.351 90.1836C206.187 98.1619 185.422 105.735 165.855 112.913C164.657 115.306 163.858 117.698 163.459 120.092C187.419 110.125 208.583 102.146 226.552 95.371C226.951 94.9687 227.75 93.7713 228.548 91.3795C228.947 90.5859 228.947 90.1836 228.947 90.1836C228.815 90.0537 228.682 90.0068 228.535 90.0068C228.239 90.0068 227.883 90.1836 227.351 90.1836Z" fill="#4D3003"/>
<mask id="mask2_179_88" style="mask-type:luminance" maskUnits="userSpaceOnUse" x="163" y="90" width="66" height="31">
<path d="M227.351 90.1836C206.187 98.1619 185.422 105.735 165.855 112.913C164.657 115.306 163.858 117.698 163.459 120.092C187.419 110.125 208.583 102.146 226.552 95.371C226.951 94.9687 227.75 93.7713 228.548 91.3795C228.947 90.5859 228.947 90.1836 228.947 90.1836C228.815 90.0537 228.682 90.0068 228.535 90.0068C228.239 90.0068 227.883 90.1836 227.351 90.1836Z" fill="white"/>
</mask>
<g mask="url(#mask2_179_88)">
<path d="M163.459 90.0068H228.947V120.092H163.459V90.0068Z" fill="#4D3003"/>
</g>
<path d="M316.724 250.549C309.673 254.669 302.741 258.619 296.209 262.356C295.928 263.279 295.789 264.179 295.792 265.056C303.717 260.061 310.767 255.941 316.753 252.444C316.871 252.277 317.082 251.803 317.222 250.902C317.316 250.596 317.293 250.453 317.293 250.453C317.236 250.414 317.186 250.406 317.134 250.416C317.029 250.433 316.913 250.517 316.724 250.549Z" fill="#4D3003"/>
<mask id="mask3_179_88" style="mask-type:luminance" maskUnits="userSpaceOnUse" x="295" y="250" width="23" height="16">
<path d="M316.724 250.549C309.673 254.669 302.741 258.619 296.209 262.356C295.928 263.279 295.789 264.179 295.792 265.056C303.717 260.061 310.767 255.941 316.753 252.444C316.871 252.277 317.082 251.803 317.222 250.902C317.316 250.596 317.293 250.453 317.293 250.453C317.236 250.414 317.186 250.406 317.134 250.416C317.029 250.433 316.913 250.517 316.724 250.549Z" fill="white"/>
</mask>
<g mask="url(#mask3_179_88)">
<path d="M293.969 254.346L317.282 250.391L319.103 261.099L295.792 265.056L293.969 254.346Z" fill="#4D3003"/>
</g>
<path d="M392.659 189.682C392.357 184.953 391.396 181.361 390.117 178.52C390.001 176.701 390.838 172.63 392.993 166.282C393.312 165.531 393.652 165.145 394.017 165.121C394.381 165.098 394.768 165.439 395.202 166.506C396.023 167.915 397.76 172.188 401.139 179.279C404.542 186.733 406.666 191.346 407.147 193.143C407.581 194.21 407.65 195.301 407.697 196.029C407.837 198.213 405.923 196.873 401.636 192.762C401.225 192.058 400.884 192.446 400.954 193.537C400.978 193.9 403 208.384 406.658 237.008C410.682 265.611 412.798 281.549 413.031 285.187C413.752 296.464 412.534 306.04 409.791 314.617C409.179 316.482 408.884 317.597 408.202 318.371C407.931 319.85 407.566 319.873 407.155 319.168C407.086 318.076 406.992 316.622 407.171 313.689C407.302 310.026 407.389 305.639 407.063 300.545C406.76 295.815 404.117 277.353 399.815 244.386C395.536 211.782 392.893 193.32 392.659 189.682Z" fill="#4D3003"/>
</g>
<defs>
<linearGradient id="paint0_linear_179_88" x1="256" y1="549.5" x2="256" y2="15" gradientUnits="userSpaceOnUse">
<stop stop-color="#FFD483"/>
<stop offset="1" stop-color="#FEEDD3"/>
</linearGradient>
<clipPath id="clip0_179_88">
<rect width="331.981" height="331.981" fill="white" transform="translate(90.0093 90.0093)"/>
</clipPath>
</defs>
</svg>
