<svg width="172" height="172" viewBox="0 0 172 172" fill="none" xmlns="http://www.w3.org/2000/svg">
<g clip-path="url(#clip0_94_34)">
<path d="M128.384 115.494C128.302 119.282 129.685 123.007 131.657 126.197C134.273 124.856 137.175 123.576 138.871 121.065C139.426 118.404 138.287 115.718 136.979 113.439C135.878 111.753 134.156 109.908 131.93 110.284C129.793 111.017 128.334 113.248 128.384 115.494ZM16.7369 102.417C15.5626 103.172 13.5666 103.477 13.5666 103.477C11.1091 108.77 8.33784 115.546 8.63539 121.499C8.66552 124.397 9.81511 127.293 11.7727 129.431C13.2662 131.154 15.7976 131.209 17.8726 130.83C22.0967 129.497 24.8517 125.807 27.768 122.718C33.5566 116.653 41.1445 112.708 48.9044 109.76C57.661 106.379 66.8138 103.458 74.3853 97.7104C70.904 87.158 61.6967 80.1366 53.4917 73.2846C39.9705 81.3717 31.0826 95.5207 16.7369 102.417ZM17.0589 44.8688C15.1695 47.5872 13.0889 50.2083 11.688 53.2292C10.1289 56.2128 9.00529 61.3252 11.1119 63.0266C11.7264 63.9049 14.1792 63.84 16.4803 60.4039C16.046 64.3761 12.273 70.8428 9.27742 69.8907C8.50472 70.6652 4.16034 79.8098 3.07608 83.8695C2.16406 87.8887 2.19706 92.5762 4.86997 95.9465C7.39315 98.4501 11.7235 98.7573 14.6889 96.8437C27.4704 89.479 37.3328 78.2803 48.1399 68.4666C37.7697 60.6131 27.4485 52.6948 17.0589 44.8688ZM94.6373 1.66893C97.5479 1.11584 101.218 2.09714 102.362 5.09694C103.085 8.92555 101.207 12.6471 99.3556 15.887C95.0767 23.3439 88.4858 29.0378 83.191 35.721C82.9262 36.0049 82.6339 36.2522 82.3147 36.4712C82.612 34.3164 83.7781 32.4325 84.8598 30.5892C88.6985 24.7299 94.2029 20.2354 98.3916 14.6567C100.142 12.5652 98.766 8.66928 95.9018 8.58656C86.2598 8.13484 77.1432 11.7883 68.1519 14.7443C66.0737 15.5618 63.8402 15.9089 61.795 16.8139C47.0832 22.6789 31.8417 27.6851 18.3585 36.1598C30.8916 45.0245 43.5881 53.655 56.1377 62.4978C56.6291 62.8166 57.1969 63.4816 57.8114 63.0234C62.9009 60.4607 68.6651 59.3642 74.3443 59.6862C72.6624 51.0696 68.9928 42.8373 68.616 33.9758C68.3948 30.9136 68.7879 27.5626 70.754 25.0867C72.8616 29.1683 74.8278 33.3246 76.8374 37.4549C75.7998 37.008 74.7539 36.5823 73.6727 36.2579C73.9566 42.0904 75.2237 47.923 77.7027 53.2268C79.6962 57.7342 83.3826 61.2814 87.4755 63.9211C88.6303 64.5699 88.6523 66.0475 88.7481 67.2121C88.7424 69.0659 88.9414 71.0626 88.0537 72.764C83.1284 67.9103 75.86 65.4831 69.0172 66.779C67.6275 67.0815 66.1584 67.3264 64.9872 68.1852C73.8612 75.1523 82.5113 82.4162 90.9732 89.8821C94.3125 92.8658 97.6299 96.2516 101.991 97.6585C100.38 77.7239 96.9558 57.9904 95.1481 38.0793C94.7551 36.1354 95.8879 34.404 96.7398 32.7569C100.191 37.8774 103.246 43.465 104.339 49.6106C103.053 48.7137 101.911 47.6286 100.614 46.7479C102.234 63.6348 104.983 80.3904 106.695 97.266C106.741 97.6723 106.791 98.0842 106.949 98.4688C109.573 99.7119 112.55 98.6591 115.017 97.5337C116.757 96.6612 118.583 95.6107 119.641 93.9257C118.95 86.6374 118.094 79.3516 117.052 72.0982C115.067 57.1122 113.047 42.1285 111.039 27.1449C110.431 20.7317 108.866 14.4572 108.287 8.04726C108.453 6.05956 109.131 4.12053 109.961 2.31287C112.921 7.76344 116.639 13.0396 117.723 19.2679C116.37 18.401 115.206 17.2713 113.841 16.4182C113.704 24.4266 115.432 32.3068 116.348 40.2309C118.463 55.6865 120.588 71.1388 122.698 86.5968C123.49 91.1991 122.688 96.3067 119.714 100.02C116.787 103.418 112.473 105.035 108.355 106.471C108.76 115.426 109.144 124.809 105.532 133.238C105.731 124.174 104.898 115.121 103.656 106.153C97.1686 104.037 92.0817 99.2896 87.3221 94.6052C80.8211 88.5626 74.5166 82.1 66.8576 77.5058C66.6362 78.3232 67.4964 78.7766 67.9332 79.324C71.8434 83.5865 75.3465 88.6389 76.1138 94.5038C76.2394 97.214 76.3105 100.1 75.0435 102.584C73.5224 105.128 70.9777 106.853 68.4164 108.231C61.0496 112.361 52.5743 113.769 44.9179 117.223C39.8392 119.377 35.0773 122.494 31.5115 126.739C31.0144 127.351 30.3727 127.974 30.4165 128.831C30.1953 133.679 30.9215 138.825 33.767 142.885C36.1778 146.383 40.159 148.477 44.2299 149.404C50.016 150.67 56.2278 150.345 61.7788 148.226C63.4389 143.809 64.8641 139.285 67.065 135.092C65.8281 133.491 64.067 132.357 62.9174 130.694C62.9554 128.88 64.4302 127.421 65.6369 126.189C66.2758 125.324 67.2233 126.132 67.9605 126.407C71.7941 123.156 75.565 119.647 78.0986 115.254C74.7567 114.053 75.2836 109.823 76.8291 107.38C77.5064 106.024 79.6416 105.313 80.6136 106.753C82.6396 108.929 81.6732 112.004 81.4734 114.603C82.5632 115.691 83.6855 117.376 82.2684 118.731C81.3313 118.158 80.7284 117.223 79.8982 116.528C76.6572 120.428 72.9 123.868 69.1127 127.217C70.0577 128.597 71.7285 129.485 72.3594 131.056C71.6851 133.704 69.2875 135.479 68.0097 137.84C66.4833 140.7 65.1208 143.814 65.1017 147.113C75.2373 143.132 85.0588 137.873 93.0156 130.342C93.5288 129.769 94.4928 129.189 94.0145 128.308C91.7812 121.624 88.3298 115.446 85.4681 109.024C84.9199 107.666 83.9121 106.3 84.2889 104.762C84.5642 103.031 84.7615 101.015 86.285 99.8813C89.1078 103.014 91.929 106.15 94.738 109.294C94.8834 109.436 95.1449 109.978 94.7137 109.913C93.2779 110.354 92.2181 108.994 90.8554 108.869C91.4669 113.283 94.4351 116.845 95.8335 120.989C97.0484 124.305 97.3075 128.074 95.9643 131.394C94.5529 135.236 91.6334 138.288 88.5978 140.93C81.3971 146.879 72.8153 150.864 64.1596 154.22C63.6083 158.248 64.6129 162.7 67.4283 165.729C69.3341 167.777 72.5012 168.116 74.9286 166.817C82.858 162.717 87.5381 154.823 93.3461 148.398C97.2449 143.904 102.13 140.314 107.457 137.69C114.1 134.375 121.197 132.045 127.739 128.509C126.098 121.687 124.351 113.932 127.971 107.429C129.459 104.369 133.471 102.714 136.572 104.329C138.827 106.017 140.217 108.659 141.039 111.301C143.371 117.883 140.829 125.395 135.971 130.162C135.373 130.836 134.513 131.312 134.098 132.125C135.447 134.593 137.918 136.466 140.673 137.071C145.943 138.328 151.51 136.109 155.27 132.398C153.627 111.996 150.678 91.7253 148.207 71.4113C146.268 56.3515 144.427 41.2722 142.456 26.2237C142.612 24.356 143.631 22.7146 144.474 21.0837C148.016 26.2804 150.498 32.19 151.873 38.3137C150.303 37.8506 149.591 36.2936 148.455 35.2653C149.343 52.359 151.715 69.3279 153.755 86.313C155.06 97.4079 156.384 108.5 157.771 119.587C158.323 123.285 158.246 127.083 157.659 130.77C156.996 135.196 154.837 139.717 150.7 141.854C146.609 143.67 141.713 144.905 137.438 142.961C133.937 141.235 131.976 137.644 130.196 134.353C121.781 137.202 113.734 141.042 105.83 145.071C97.3838 149.508 92.046 157.699 85.7986 164.581C82.9676 167.399 80.573 170.843 76.3266 171.938C76.3266 171.938 71.6908 172.668 67.3407 169.102C63.5426 166.136 62.0872 161.23 61.593 156.63C61.6504 155.106 59.8346 155.982 58.928 155.995C51.0999 157.067 42.0074 157.964 35.4216 152.679C29.0238 147.22 28.1746 138.186 28.2238 130.328C25.1249 132.003 22.9868 135.62 19.1589 135.771C12.5864 135.975 7.38776 129.892 6.50017 123.77C5.42447 116.605 8.75274 109.878 11.202 103.358C4.51182 102.117 2.12885 97.1291 2.12885 97.1291C-0.526288 93.143 0.0535932 86.8012 0.0535932 86.8012C1.05284 80.9516 3.281 75.3599 6.44561 70.34C6.81136 69.6717 7.43946 68.9516 7.07371 68.156C6.15344 65.4287 5.88032 62.4565 6.63403 59.6538C8.10848 53.4611 12.2999 48.4274 16.0568 43.4594C15.1777 39.5245 15.9724 35.3877 17.4741 31.7067C17.9081 30.4497 19.3445 30.1066 20.3548 29.4441C43.4381 16.2957 68.8481 7.72287 94.6373 1.66893Z" fill="#563400"/>
<path d="M136.457 61.4727C136.559 61.3721 132.771 34.219 131.389 22.7096C132.904 23.2846 133.773 24.8149 135.179 25.5805C133.948 19.1486 130.628 13.4085 127.414 7.79172C126.125 9.52882 125.541 11.6747 125.255 13.7824C128.386 29.9192 134.69 78.976 135.218 85.9812C138.516 78.2639 137.508 69.5605 136.457 61.4727Z" fill="#563400"/>
<path d="M42.3678 126.407C50.2917 123.162 58.1416 119.74 65.9729 116.28C65.7571 118 64.389 119.424 62.86 120.138C55.4576 123.669 47.5775 126.241 40.5276 130.486C41.3083 131.831 42.7855 133.098 42.3104 134.821C40.8553 135.122 39.9788 133.794 39.094 132.896C38.3759 130.309 39.9049 127.416 42.3678 126.407Z" fill="#563400"/>
<path d="M79.778 125.352C79.4148 126.765 79.0573 128.425 79.6879 129.783C81.3045 130.746 83.2154 129.589 84.5074 128.55C83.6173 126.813 81.8535 125.226 79.778 125.352ZM79.5569 122.592C82.2165 122.674 85.1733 124.165 85.8725 126.909C86.3858 129.283 84.483 131.383 82.5007 132.387C80.9632 132.973 78.5849 132.665 78.189 130.762C78.189 127.996 78.6776 125.215 79.5569 122.592Z" fill="#563400"/>
<path d="M101.521 23.6954C101.206 24.9216 100.895 26.3627 101.443 27.5419C102.847 28.378 104.506 27.374 105.627 26.4722C104.854 24.9638 103.323 23.5859 101.521 23.6954ZM101.33 21.299C103.638 21.3703 106.205 22.6655 106.813 25.0465C107.258 27.1088 105.606 28.9319 103.885 29.8029C102.55 30.3122 100.485 30.0446 100.142 28.3918C100.142 25.9913 100.566 23.5762 101.33 21.299Z" fill="#563400"/>
<path d="M25.0338 60.9723C23.7871 62.6105 23.5273 64.2414 23.8375 65.7595C24.1084 67.0846 25.5188 68.1811 28.0287 68.8534C26.6693 70.9076 24.438 73.5327 21.2582 76.3541C18.7601 78.6402 16.0719 80.9653 13.5735 83.2515C12.9305 83.9749 12.7792 84.2019 12.8182 84.3925L12.8569 84.5823C13.0469 84.5433 13.5776 84.2376 14.1077 83.9311C17.784 81.6036 19.7165 80.4179 20.0575 80.1527C21.7617 78.8162 23.6167 77.2543 25.5457 75.0841C27.1341 73.1824 28.5324 71.3179 29.4736 69.1518C30.5775 69.7163 31.4531 70.1299 31.9101 70.4315C32.5491 68.722 32.9244 67.6564 32.8082 67.0879C32.3124 66.5964 31.4369 66.1828 30.1819 65.8463C30.4027 64.0248 30.4725 62.4321 30.201 61.1037C29.9304 59.7786 29.1668 58.9457 28.3694 58.9124C28.1206 58.8662 27.8691 58.8678 27.6127 58.9197C26.8159 59.0827 25.9787 59.7356 25.0338 60.9723ZM25.5765 63.6283C25.5379 63.4385 25.6885 63.2082 25.9912 62.7532C26.5215 62.4467 26.8625 62.1815 27.0522 62.1426C27.6217 62.0266 28.0788 62.3283 28.4619 63.2357C28.7681 63.7653 28.7335 64.5633 28.6987 65.3605C26.6066 64.7985 25.693 64.1968 25.5765 63.6283Z" fill="#563400"/>
<mask id="mask0_94_34" style="mask-type:luminance" maskUnits="userSpaceOnUse" x="12" y="58" width="21" height="27">
<path d="M25.0338 60.9723C23.7871 62.6105 23.5273 64.2414 23.8375 65.7595C24.1084 67.0846 25.5188 68.1811 28.0287 68.8534C26.6693 70.9076 24.438 73.5327 21.2582 76.3541C18.7601 78.6402 16.0719 80.9653 13.5735 83.2515C12.9305 83.9749 12.7792 84.2019 12.8182 84.3925L12.8569 84.5823C13.0469 84.5433 13.5776 84.2376 14.1077 83.9311C17.784 81.6036 19.7165 80.4179 20.0575 80.1527C21.7617 78.8162 23.6167 77.2543 25.5457 75.0841C27.1341 73.1824 28.5324 71.3179 29.4736 69.1518C30.5775 69.7163 31.4531 70.1299 31.9101 70.4315C32.5491 68.722 32.9244 67.6564 32.8082 67.0879C32.3124 66.5964 31.4369 66.1828 30.1819 65.8463C30.4027 64.0248 30.4725 62.4321 30.201 61.1037C29.9304 59.7786 29.1668 58.9457 28.3694 58.9124C28.1206 58.8662 27.8691 58.8678 27.6127 58.9197C26.8159 59.0827 25.9787 59.7356 25.0338 60.9723ZM25.5765 63.6283C25.5379 63.4385 25.6885 63.2082 25.9912 62.7532C26.5215 62.4467 26.8625 62.1815 27.0522 62.1426C27.6217 62.0266 28.0788 62.3283 28.4619 63.2357C28.7681 63.7653 28.7335 64.5633 28.6987 65.3605C26.6066 64.7985 25.693 64.1968 25.5765 63.6283Z" fill="white"/>
</mask>
<g mask="url(#mask0_94_34)">
<path d="M8.41168 62.8343L30.9975 58.2304L35.443 79.9784L12.8569 84.5823L8.41168 62.8343Z" fill="#563400"/>
</g>
<path d="M138.687 48.3969C137.48 49.6507 137.102 50.9953 137.213 52.3001C137.312 53.4395 138.388 54.4979 140.43 55.308C139.087 56.9 136.956 58.8869 134.01 60.9451C131.687 62.6214 129.202 64.3107 126.88 65.987C126.269 66.5311 126.119 66.7071 126.134 66.8709L126.148 67.0339C126.311 67.0201 126.787 66.8158 127.262 66.609C130.577 65.0146 132.316 64.2077 132.629 64.0179C134.191 63.0626 135.902 61.9313 137.735 60.298C139.255 58.856 140.612 57.4263 141.614 55.6997C142.486 56.282 143.181 56.7151 143.535 57.0127C144.24 55.6389 144.659 54.7817 144.617 54.2927C144.248 53.8312 143.554 53.3982 142.533 52.9935C142.897 51.4851 143.112 50.1551 143.014 49.0124C142.917 47.873 142.357 47.0993 141.69 46.9931C141.487 46.9298 141.275 46.9063 141.055 46.9258C140.369 46.9842 139.603 47.4505 138.687 48.3969ZM138.883 50.6798C138.869 50.5168 139.018 50.3384 139.317 49.9864C139.793 49.7804 140.104 49.5906 140.268 49.5769C140.757 49.5347 141.111 49.8331 141.344 50.6327C141.55 51.1072 141.443 51.7746 141.336 52.4404C139.633 51.7632 138.925 51.1688 138.883 50.6798Z" fill="#563400"/>
<mask id="mask1_94_34" style="mask-type:luminance" maskUnits="userSpaceOnUse" x="126" y="46" width="19" height="22">
<path d="M138.687 48.3969C137.48 49.6507 137.102 50.9953 137.213 52.3001C137.312 53.4395 138.388 54.4979 140.43 55.308C139.087 56.9 136.956 58.8869 134.01 60.9451C131.687 62.6214 129.202 64.3107 126.88 65.987C126.269 66.5311 126.119 66.7071 126.134 66.8709L126.148 67.0339C126.311 67.0201 126.787 66.8158 127.262 66.609C130.577 65.0146 132.316 64.2077 132.629 64.0179C134.191 63.0626 135.902 61.9313 137.735 60.298C139.255 58.856 140.612 57.4263 141.614 55.6997C142.486 56.282 143.181 56.7151 143.535 57.0127C144.24 55.6389 144.659 54.7817 144.617 54.2927C144.248 53.8312 143.554 53.3982 142.533 52.9935C142.897 51.4851 143.112 50.1551 143.014 49.0124C142.917 47.873 142.357 47.0993 141.69 46.9931C141.487 46.9298 141.275 46.9063 141.055 46.9258C140.369 46.9842 139.603 47.4505 138.687 48.3969ZM138.883 50.6798C138.869 50.5168 139.018 50.3384 139.317 49.9864C139.793 49.7804 140.104 49.5906 140.268 49.5769C140.757 49.5347 141.111 49.8331 141.344 50.6327C141.55 51.1072 141.443 51.7746 141.336 52.4404C139.633 51.7632 138.925 51.1688 138.883 50.6798Z" fill="white"/>
</mask>
<g mask="url(#mask1_94_34)">
<path d="M124.546 48.3361L143.964 46.6768L145.567 65.3747L126.148 67.0339L124.546 48.3361Z" fill="#563400"/>
</g>
<path d="M80.9311 46.4901C82.175 46.143 83.4947 46.5055 84.8094 47.722C86.2371 48.906 87.452 50.6367 88.5662 52.8814C88.6295 53.1077 88.6612 53.2204 88.692 53.3332C88.8057 53.3015 88.8057 53.3015 88.8057 53.3015C88.7741 53.1888 88.8553 53.0444 88.7927 52.8182C88.6084 51.2879 88.6059 49.0974 88.4955 46.0863C88.8325 43.8018 89.4846 42.6461 90.5022 42.3631C90.9545 42.2366 91.6139 42.4182 92.2555 42.9697C92.8662 43.4084 93.2178 43.7969 93.3128 44.1351C93.407 44.4741 93.3891 44.8447 93.4021 45.328C93.3656 46.0676 93.234 46.4699 93.0075 46.5323C92.8946 46.5647 92.6055 46.4017 92.0265 46.0757C91.5611 45.7189 91.1591 45.5875 90.7068 45.7132C89.8022 45.9654 89.5788 48.2183 89.9232 52.5035C90.0888 54.4045 90.0961 55.7409 89.9784 56.6257C89.7648 57.1723 89.6332 57.5738 89.4075 57.637C89.2946 57.6678 89.1184 57.474 88.96 56.9096C88.7708 56.2316 87.94 55.003 86.5497 53.0785C85.0774 51.2976 84.228 50.4396 83.8885 50.5337C83.6628 50.5969 83.5499 50.6286 83.4995 50.8856C83.4183 51.03 83.3363 51.1743 82.9977 51.2692C82.5453 51.3949 81.998 51.1824 81.2752 50.7753C80.439 50.3998 80.087 50.0114 79.9921 49.6724C79.9607 49.5597 80.0606 49.0447 80.2605 48.0156C80.5736 46.9548 80.8181 46.521 80.9311 46.4901Z" fill="#563400"/>
<path d="M51.726 44.4692C52.9699 44.123 54.2898 44.4855 55.6044 45.7011C57.0319 46.8851 58.2465 48.6158 59.3613 50.8605C59.4244 51.0868 59.4558 51.1995 59.4875 51.3123C59.6004 51.2815 59.6004 51.2815 59.6004 51.2815C59.569 51.1679 59.6505 51.0236 59.5874 50.7981C59.4034 49.267 59.4009 47.0773 59.2908 44.0654C59.6274 41.7809 60.2796 40.626 61.2973 40.3422C61.7493 40.2165 62.4094 40.3973 63.0508 40.9488C63.6609 41.3875 64.0133 41.776 64.1078 42.115C64.2024 42.4532 64.1839 42.8238 64.197 43.3071C64.1601 44.0475 64.0288 44.449 63.8027 44.5122C63.6894 44.5439 63.4004 44.3808 62.8218 44.0548C62.3564 43.698 61.9542 43.5666 61.5022 43.6931C60.5974 43.9445 60.3738 46.1974 60.718 50.4826C60.8836 52.3836 60.8915 53.7201 60.7728 54.6048C60.56 55.1514 60.4283 55.5537 60.2025 55.6161C60.0893 55.6477 59.9132 55.4531 59.7555 54.8887C59.5662 54.2115 58.7354 52.9829 57.3447 51.0576C55.8725 49.2775 55.0229 48.4187 54.6838 48.5136C54.4576 48.576 54.3447 48.6077 54.2946 48.8647C54.213 49.0091 54.1315 49.1543 53.7924 49.2483C53.34 49.374 52.7935 49.1616 52.0702 48.7544C51.2341 48.379 50.8819 47.9905 50.7874 47.6515C50.7557 47.5388 50.8556 47.0238 51.0554 45.9947C51.3685 44.9339 51.6131 44.5009 51.726 44.4692Z" fill="#563400"/>
<path d="M26.4452 101.294C27.6887 100.948 29.0086 101.31 30.3232 102.526C31.751 103.71 32.9657 105.441 34.0804 107.686C34.1435 107.912 34.1749 108.024 34.2066 108.138C34.3195 108.106 34.3195 108.106 34.3195 108.106C34.2878 107.993 34.3694 107.849 34.3062 107.623C34.1226 106.092 34.12 103.902 34.0096 100.89C34.3465 98.6056 34.9984 97.451 36.016 97.1671C36.4684 97.0414 37.1282 97.2223 37.77 97.7737C38.3796 98.2126 38.7321 98.6009 38.8266 98.9399C38.9214 99.2788 38.9031 99.6489 38.9161 100.132C38.8793 100.873 38.7477 101.274 38.5215 101.337C38.4085 101.369 38.1192 101.206 37.5409 100.881C37.0756 100.523 36.6734 100.392 36.2209 100.518C35.3166 100.77 35.0929 103.022 35.4371 107.308C35.6024 109.209 35.6103 110.546 35.492 111.431C35.2788 111.976 35.1475 112.379 34.9214 112.441C34.8084 112.473 34.632 112.278 34.4744 111.714C34.285 111.036 33.4545 109.808 32.0635 107.882C30.5912 106.102 29.742 105.244 29.4029 105.339C29.1767 105.401 29.0635 105.433 29.0137 105.691C28.9322 105.835 28.8507 105.979 28.5116 106.073C28.0592 106.2 27.5123 105.987 26.7894 105.579C25.9532 105.204 25.6007 104.815 25.5062 104.476C25.4748 104.364 25.5747 103.849 25.7746 102.82C26.0873 101.759 26.3319 101.326 26.4452 101.294Z" fill="#563400"/>
<path d="M45.3113 134.471C46.5547 134.124 47.8747 134.487 49.1893 135.703C50.6171 136.887 51.8318 138.618 52.9462 140.863C53.0093 141.088 53.041 141.202 53.0724 141.314C53.1857 141.283 53.1857 141.283 53.1857 141.283C53.1539 141.17 53.2355 141.026 53.1724 140.799C52.9887 139.269 52.9861 137.079 52.8757 134.068C53.2126 131.783 53.8645 130.627 54.8821 130.344C55.3345 130.218 55.9944 130.399 56.6357 130.951C57.2458 131.389 57.5982 131.778 57.6928 132.116C57.7876 132.455 57.7688 132.826 57.7822 133.308C57.7454 134.049 57.6137 134.451 57.3876 134.514C57.2746 134.545 56.9853 134.383 56.4071 134.057C55.9417 133.7 55.5391 133.569 55.0871 133.694C54.1824 133.947 53.9587 136.2 54.3033 140.485C54.4685 142.385 54.4764 143.722 54.3581 144.607C54.1449 145.154 54.0136 145.555 53.7874 145.618C53.6741 145.649 53.4981 145.455 53.3405 144.891C53.1511 144.213 52.3203 142.984 50.9296 141.06C49.4574 139.279 48.6082 138.421 48.2691 138.515C48.0429 138.578 47.9296 138.61 47.8798 138.867C47.7983 139.011 47.7168 139.155 47.3776 139.251C46.9253 139.376 46.3784 139.164 45.6551 138.756C44.8192 138.381 44.4669 137.992 44.3723 137.654C44.3409 137.541 44.4405 137.026 44.6407 135.997C44.9535 134.936 45.198 134.503 45.3113 134.471Z" fill="#563400"/>
<path d="M111.985 148.428C113.228 148.081 114.549 148.444 115.863 149.66C117.29 150.844 118.505 152.574 119.62 154.819C119.683 155.045 119.715 155.158 119.746 155.271C119.859 155.239 119.859 155.239 119.859 155.239C119.827 155.127 119.909 154.982 119.846 154.756C119.663 153.226 119.66 151.035 119.55 148.024C119.886 145.74 120.538 144.584 121.556 144.301C122.008 144.175 122.668 144.356 123.31 144.908C123.92 145.346 124.272 145.735 124.366 146.073C124.461 146.412 124.443 146.783 124.456 147.265C124.419 148.005 124.287 148.408 124.062 148.47C123.948 148.502 123.659 148.34 123.081 148.014C122.615 147.657 122.213 147.526 121.761 147.651C120.856 147.903 120.633 150.156 120.977 154.441C121.142 156.342 121.15 157.679 121.032 158.564C120.819 159.11 120.687 159.512 120.461 159.575C120.348 159.607 120.172 159.412 120.014 158.847C119.825 158.17 118.994 156.941 117.603 155.016C116.131 153.236 115.282 152.377 114.943 152.471C114.716 152.535 114.603 152.567 114.554 152.823C114.472 152.968 114.391 153.112 114.051 153.207C113.599 153.333 113.052 153.12 112.329 152.713C111.493 152.338 111.141 151.949 111.046 151.61C111.015 151.498 111.115 150.983 111.314 149.953C111.627 148.893 111.871 148.46 111.985 148.428Z" fill="#563400"/>
<path d="M41.403 37.6848C41.403 37.5583 41.5298 37.4317 41.5298 37.3052C41.6564 37.3052 41.6564 37.3052 41.6564 37.3052C41.7834 37.4317 41.7834 37.5583 41.6564 37.6848C41.0226 41.3544 39.8822 43.2529 38.4883 43.2529C36.8407 43.2529 36.0803 41.8613 36.0803 39.2037C36.0803 35.9128 36.9676 32.4961 38.8684 28.8257C39.3753 27.9401 39.6287 27.5605 39.7557 27.5605C39.7557 27.687 39.6287 28.1931 39.3753 29.0787C38.108 32.7492 37.4745 35.4067 37.4745 36.7984C37.4745 38.9499 37.9814 39.9628 39.1218 39.9628C39.7557 39.9628 40.5157 39.2037 41.403 37.6848Z" fill="#563400"/>
<path d="M55.867 34.0006C55.867 33.8741 55.9939 33.7476 55.9939 33.6211C56.1205 33.6211 56.1205 33.6211 56.1205 33.6211C56.2474 33.7476 56.2474 33.8741 56.1205 34.0006C55.487 37.6711 54.3466 39.5696 52.9524 39.5696C51.3051 39.5696 50.5447 38.1771 50.5447 35.5196C50.5447 32.2294 51.4316 28.812 53.3327 25.1423C53.8396 24.2559 54.0932 23.8764 54.2197 23.8764C54.2197 24.0029 54.0932 24.5089 53.8396 25.3953C52.5721 29.065 51.9385 31.7226 51.9385 33.115C51.9385 35.2665 52.4455 36.2786 53.5862 36.2786C54.2197 36.2786 54.9801 35.5196 55.867 34.0006Z" fill="#563400"/>
<path d="M82.9334 23.6127C82.9334 23.5032 83.0431 23.3937 83.0431 23.2842C83.1527 23.2842 83.1527 23.2842 83.1527 23.2842C83.2623 23.3937 83.2623 23.5032 83.1527 23.6127C82.6037 26.7901 81.6171 28.4331 80.4101 28.4331C78.9839 28.4331 78.326 27.228 78.326 24.9273C78.326 22.0791 79.0937 19.1215 80.7394 15.9441C81.1781 15.1769 81.3978 14.8484 81.5074 14.8484C81.5074 14.9587 81.3978 15.3967 81.1781 16.163C80.0808 19.3404 79.5323 21.6404 79.5323 22.8463C79.5323 24.7083 79.9714 25.585 80.9586 25.585C81.5074 25.585 82.1652 24.9273 82.9334 23.6127Z" fill="#563400"/>
<path d="M124.611 38.5234C124.595 38.4148 124.689 38.2915 124.674 38.1828C124.783 38.1682 124.783 38.1682 124.783 38.1682C124.907 38.2615 124.922 38.3702 124.828 38.4934C124.718 41.7154 123.964 43.4777 122.769 43.6423C121.356 43.8361 120.54 42.7316 120.225 40.4527C119.837 37.6314 120.194 34.5959 121.391 31.2246C121.721 30.4056 121.893 30.0495 122.002 30.0349C122.017 30.1436 121.968 30.5929 121.855 31.382C121.202 34.6786 120.972 37.0328 121.136 38.2266C121.391 40.0716 121.945 40.8801 122.923 40.7455C123.466 40.6709 124.029 39.9305 124.611 38.5234Z" fill="#563400"/>
<path d="M111.9 65.9755C111.874 65.8587 111.965 65.7168 111.94 65.6C112.056 65.5748 112.056 65.5748 112.056 65.5748C112.199 65.6657 112.224 65.7824 112.133 65.9244C112.293 69.4359 111.627 71.4163 110.341 71.6977C108.824 72.031 107.84 70.9013 107.301 68.4522C106.634 65.4191 106.759 62.0901 107.767 58.3223C108.055 57.4034 108.211 57.002 108.328 56.9769C108.353 57.0928 108.34 57.5851 108.285 58.4528C107.861 62.0925 107.817 64.6706 108.098 65.9536C108.535 67.9364 109.208 68.7677 110.259 68.5365C110.842 68.4084 111.39 67.5552 111.9 65.9755Z" fill="#563400"/>
<path d="M145.099 77.085C145.088 76.9666 145.196 76.8368 145.185 76.7176C145.304 76.707 145.304 76.707 145.304 76.707C145.434 76.8149 145.446 76.9341 145.337 77.0639C145.057 80.5673 144.149 82.4496 142.839 82.5688C141.29 82.7099 140.456 81.4675 140.227 78.9697C139.944 75.8766 140.484 72.5897 141.954 68.9768C142.355 68.101 142.56 67.7222 142.68 67.7117C142.69 67.8309 142.615 68.3175 142.452 69.1715C141.578 72.7292 141.21 75.2813 141.331 76.5903C141.516 78.612 142.079 79.5203 143.151 79.4222C143.747 79.3679 144.395 78.5885 145.099 77.085Z" fill="#563400"/>
<path d="M150.254 123.54C150.243 123.421 150.351 123.291 150.341 123.172C150.46 123.162 150.46 123.162 150.46 123.162C150.59 123.269 150.601 123.388 150.493 123.518C150.213 127.022 149.305 128.904 147.994 129.023C146.446 129.164 145.611 127.922 145.383 125.424C145.1 122.332 145.639 119.044 147.11 115.431C147.51 114.555 147.715 114.176 147.835 114.166C147.845 114.285 147.77 114.772 147.608 115.626C146.733 119.184 146.366 121.736 146.486 123.045C146.671 125.066 147.235 125.974 148.307 125.877C148.902 125.822 149.551 125.043 150.254 123.54Z" fill="#563400"/>
<path d="M171.74 78.4245C171.725 78.3224 171.811 78.2048 171.795 78.1026C171.898 78.0872 171.898 78.0872 171.898 78.0872C172.015 78.174 172.031 78.2761 171.944 78.3937C171.881 81.4292 171.193 83.0982 170.069 83.2677C168.741 83.468 167.958 82.4389 167.634 80.2963C167.233 77.6436 167.531 74.7808 168.616 71.5913C168.916 70.8152 169.075 70.4778 169.176 70.4624C169.192 70.5646 169.152 70.9879 169.055 71.7332C168.481 74.8465 168.294 77.0653 168.465 78.1877C168.727 79.9224 169.259 80.6766 170.178 80.5379C170.689 80.4609 171.21 79.7562 171.74 78.4245Z" fill="#563400"/>
<path d="M95.1368 80.7246C95.127 80.6151 95.2269 80.4951 95.2163 80.3864C95.326 80.3759 95.326 80.3759 95.326 80.3759C95.4462 80.4757 95.4559 80.5851 95.356 80.7043C95.0986 83.9304 94.2621 85.6635 93.0562 85.7738C91.6302 85.9035 90.8619 84.7592 90.6516 82.4593C90.3909 79.612 90.8879 76.5854 92.2417 73.2588C92.6104 72.4519 92.7996 72.104 92.9092 72.0934C92.9189 72.2029 92.8499 72.6514 92.7005 73.438C91.8949 76.7143 91.5571 79.0637 91.6675 80.268C91.8381 82.13 92.357 82.9662 93.3437 82.8761C93.8918 82.8259 94.4895 82.109 95.1368 80.7246Z" fill="#563400"/>
<path d="M22.0849 116.483C22.0751 116.373 22.1748 116.254 22.1646 116.144C22.2743 116.134 22.2743 116.134 22.2743 116.134C22.3939 116.234 22.4041 116.343 22.3044 116.463C22.0469 119.689 21.2104 121.422 20.004 121.531C18.5783 121.662 17.8101 120.518 17.5995 118.218C17.339 115.37 17.8358 112.343 19.19 109.017C19.5583 108.21 19.7477 107.862 19.8574 107.852C19.8673 107.961 19.7978 108.41 19.6487 109.196C18.8426 112.472 18.5051 114.822 18.6152 116.026C18.7858 117.888 19.3048 118.724 20.2917 118.634C20.8398 118.584 21.4378 117.867 22.0849 116.483Z" fill="#563400"/>
<path d="M26.1968 142.644C26.1885 142.555 26.2694 142.458 26.2615 142.369C26.3506 142.36 26.3506 142.36 26.3506 142.36C26.448 142.442 26.4562 142.531 26.375 142.628C26.1654 145.254 25.4846 146.664 24.5028 146.754C23.3427 146.86 22.7171 145.928 22.5459 144.056C22.3337 141.739 22.7381 139.275 23.8401 136.569C24.1402 135.912 24.2941 135.629 24.3836 135.619C24.3914 135.709 24.335 136.074 24.2138 136.714C23.5578 139.38 23.2828 141.293 23.3726 142.273C23.5115 143.788 23.9337 144.469 24.7369 144.395C25.1832 144.355 25.6699 143.771 26.1968 142.644Z" fill="#563400"/>
<path d="M57.5484 164.915C57.5402 164.826 57.6214 164.729 57.6131 164.64C57.7026 164.632 57.7026 164.632 57.7026 164.632C57.7996 164.713 57.8079 164.802 57.727 164.899C57.5174 167.524 56.8366 168.935 55.8548 169.025C54.6944 169.131 54.0692 168.199 53.8978 166.327C53.6856 164.009 54.0901 161.547 55.1921 158.839C55.4918 158.183 55.6461 157.899 55.7351 157.891C55.7434 157.98 55.6867 158.345 55.5654 158.985C54.9094 161.651 54.6348 163.563 54.7245 164.544C54.8631 166.06 55.2853 166.74 56.0889 166.666C56.5349 166.626 57.0215 166.042 57.5484 164.915Z" fill="#563400"/>
<path d="M134.256 150.805C134.246 150.698 134.344 150.58 134.334 150.473C134.442 150.463 134.442 150.463 134.442 150.463C134.56 150.561 134.569 150.668 134.472 150.786C134.219 153.958 133.396 155.662 132.209 155.77C130.808 155.898 130.053 154.772 129.845 152.511C129.589 149.711 130.078 146.735 131.41 143.465C131.772 142.672 131.958 142.329 132.066 142.319C132.075 142.427 132.007 142.867 131.86 143.641C131.068 146.862 130.735 149.173 130.844 150.357C131.012 152.188 131.522 153.009 132.493 152.921C133.031 152.871 133.619 152.167 134.256 150.805Z" fill="#563400"/>
<path d="M119.888 118.815C119.788 119.622 119.485 120.127 119.181 120.429C118.172 121.034 115.748 122.648 112.112 125.169C112.011 125.27 111.809 125.37 111.607 125.573C111.506 125.472 111.506 125.472 111.506 125.37L111.708 124.06C111.708 123.757 112.314 123.152 113.526 122.244C112.112 121.74 111.405 121.135 111.405 120.328C111.405 119.42 111.708 118.613 112.516 117.706C113.93 115.89 115.142 115.084 116.152 115.084C116.96 115.084 117.464 115.487 117.464 116.496C117.464 117.101 117.161 117.706 116.758 118.513C116.656 118.715 116.455 118.613 116.353 118.412C116.152 117.806 115.748 117.605 115.344 117.605C114.94 117.605 114.536 117.706 114.031 118.109C113.627 118.412 113.324 118.715 113.324 118.916C113.324 119.218 113.627 119.521 114.233 119.823C114.839 120.127 115.242 120.328 115.647 120.328C115.95 120.328 116.556 120.127 117.364 119.622C117.969 119.218 118.475 118.815 119.08 118.513C119.585 118.21 119.788 118.109 119.888 118.21C119.989 118.21 119.989 118.412 119.888 118.815Z" fill="#563400"/>
<path d="M52.7637 92.7468L54.8742 88.3921C55.0147 88.1107 55.1556 87.9704 55.4367 87.9704C55.7183 87.9704 56.8439 88.6727 58.954 90.0781C61.0645 91.4825 62.0494 92.3262 62.0494 92.6069C62.0494 93.4501 61.2054 95.4167 59.3762 98.367C59.0948 98.7886 58.8135 98.929 58.6726 98.6486C56.8439 97.3843 54.7333 95.9787 52.4824 94.4331C51.7788 96.2601 50.9346 97.6647 50.2314 98.929C49.9497 99.2106 49.8092 99.3509 49.5278 99.2106C47.4173 97.5243 45.3068 96.119 43.1967 94.7144C43.0559 94.7144 43.0559 94.5741 43.1967 94.2928L45.729 88.8138C46.0104 88.5324 46.1513 88.3921 46.2918 88.3921C46.5732 88.3921 47.5582 88.9541 49.3869 90.2184C51.0755 91.3426 52.201 92.1849 52.7637 92.7468Z" fill="#563400"/>
<path d="M136.115 90.4585L138.225 86.1027C138.366 85.8221 138.506 85.6818 138.788 85.6818C139.069 85.6818 140.195 86.3841 142.305 87.7888C144.415 89.1942 145.4 90.0368 145.4 90.3182C145.4 91.1608 144.556 93.1283 142.727 96.0786C142.446 96.5003 142.165 96.6406 142.023 96.3592C140.195 95.0949 138.084 93.6903 135.833 92.1444C135.13 93.9707 134.286 95.3763 133.582 96.6406C133.301 96.9212 133.16 97.0622 132.878 96.9212C130.768 95.2353 128.658 93.8307 126.547 92.426C126.407 92.426 126.407 92.2847 126.547 92.0041L129.08 86.5244C129.361 86.2438 129.502 86.1027 129.642 86.1027C129.924 86.1027 130.909 86.6647 132.738 87.9299C134.426 89.0539 135.552 89.8965 136.115 90.4585Z" fill="#563400"/>
<path d="M71.1568 0.0903616C60.1917 4.22391 49.4335 8.14742 39.2957 11.8666C38.6752 13.1065 38.2612 14.3457 38.0544 15.5857C50.4679 10.4222 61.433 6.28785 70.7428 2.77795C70.9496 2.56953 71.3637 1.94913 71.7772 0.709959C71.9841 0.298794 71.9841 0.0903616 71.9841 0.0903616C71.9153 0.0230503 71.8464 -0.00126934 71.7703 -0.00126934C71.6171 -0.00126934 71.4324 0.0903616 71.1568 0.0903616Z" fill="#563400"/>
<mask id="mask2_94_34" style="mask-type:luminance" maskUnits="userSpaceOnUse" x="38" y="-1" width="34" height="17">
<path d="M71.1568 0.0903616C60.1917 4.22391 49.4335 8.14742 39.2957 11.8666C38.6752 13.1065 38.2612 14.3457 38.0544 15.5857C50.4679 10.4222 61.433 6.28785 70.7428 2.77795C70.9496 2.56953 71.3637 1.94913 71.7772 0.709959C71.9841 0.298794 71.9841 0.0903616 71.9841 0.0903616C71.9153 0.0230503 71.8464 -0.00126934 71.7703 -0.00126934C71.6171 -0.00126934 71.4324 0.0903616 71.1568 0.0903616Z" fill="white"/>
</mask>
<g mask="url(#mask2_94_34)">
<path d="M38.0544 -0.00126934H71.9841V15.5857H38.0544V-0.00126934Z" fill="#563400"/>
</g>
<path d="M117.461 83.1753C113.808 85.3098 110.216 87.3567 106.832 89.2925C106.687 89.7709 106.615 90.2373 106.616 90.6914C110.722 88.1036 114.375 85.9691 117.476 84.1574C117.537 84.0706 117.647 83.8249 117.719 83.3586C117.768 83.1996 117.756 83.1258 117.756 83.1258C117.727 83.1055 117.701 83.1015 117.674 83.1063C117.619 83.1153 117.559 83.1591 117.461 83.1753Z" fill="#563400"/>
<mask id="mask3_94_34" style="mask-type:luminance" maskUnits="userSpaceOnUse" x="106" y="83" width="12" height="8">
<path d="M117.461 83.1753C113.808 85.3098 110.216 87.3567 106.832 89.2925C106.687 89.7709 106.615 90.2373 106.616 90.6914C110.722 88.1036 114.375 85.9691 117.476 84.1574C117.537 84.0706 117.647 83.8249 117.719 83.3586C117.768 83.1996 117.756 83.1258 117.756 83.1258C117.727 83.1055 117.701 83.1015 117.674 83.1063C117.619 83.1153 117.559 83.1591 117.461 83.1753Z" fill="white"/>
</mask>
<g mask="url(#mask3_94_34)">
<path d="M105.672 85.1427L117.75 83.0934L118.694 88.6413L106.616 90.6914L105.672 85.1427Z" fill="#563400"/>
</g>
<path d="M156.803 51.6404C156.647 49.1905 156.149 47.3293 155.486 45.8574C155.426 44.915 155.86 42.8057 156.976 39.5172C157.141 39.1279 157.317 38.9276 157.507 38.9154C157.695 38.9033 157.896 39.0801 158.121 39.6331C158.546 40.363 159.446 42.577 161.197 46.2507C162.96 50.1126 164.06 52.5025 164.31 53.4335C164.534 53.9866 164.57 54.5519 164.595 54.929C164.667 56.0603 163.675 55.3661 161.454 53.2365C161.241 52.8715 161.064 53.0726 161.101 53.6379C161.113 53.826 162.161 61.33 164.056 76.1603C166.141 90.9792 167.237 99.2367 167.358 101.122C167.732 106.964 167.101 111.926 165.68 116.369C165.362 117.336 165.209 117.913 164.856 118.314C164.716 119.081 164.526 119.093 164.314 118.728C164.278 118.162 164.229 117.408 164.322 115.889C164.39 113.991 164.435 111.718 164.266 109.079C164.109 106.628 162.74 97.0632 160.511 79.9825C158.294 63.0906 156.924 53.5252 156.803 51.6404Z" fill="#563400"/>
</g>
<defs>
<clipPath id="clip0_94_34">
<rect width="172" height="172" fill="white"/>
</clipPath>
</defs>
</svg>
