<svg width="178" height="173" viewBox="0 0 178 173" fill="none" xmlns="http://www.w3.org/2000/svg">
<path d="M126.643 0.0233864L10.8879 21.9285C10.2508 22.0494 10.0312 22.6855 10.265 23.2781L11.0956 25.2506L19.5046 46.6367V46.7405C22.1465 54.7766 26.9115 66.5642 32.1702 78.9234L58.747 146.508C58.9809 147.1 59.7709 147.563 60.4081 147.442L171.387 126.16L163.601 145.469L51.7914 166.648C51.1542 166.769 50.468 166.41 50.2341 165.817L3.10175 46.2214L0.713981 46.6367C0.0768345 46.7576 -0.14279 47.3937 0.0910863 47.9863L48.6769 171.319C48.9108 171.912 49.597 172.271 50.2341 172.15L165.989 150.141C166.254 150.091 166.468 149.888 166.612 149.726C166.628 149.709 166.703 149.742 166.715 149.726V149.622L177.201 124.706L176.993 124.499C177 124.359 176.948 124.335 176.889 124.187L128.2 0.853913C127.966 0.261316 127.28 -0.0975715 126.643 0.0233864ZM9.22688 29.9223L4.45135 42.0688L52.6219 163.326L160.798 142.355L165.366 130.831L58.2279 151.179C57.5908 151.3 57.0084 150.941 56.7745 150.349L9.22688 29.9223ZM92.9024 37.8123C92.9396 37.6914 94.354 39.1633 95.7055 40.7192C96.2628 41.3609 97.0914 42.4272 97.3665 43.0031L97.4701 43.4184L96.5358 43.0031L95.7053 42.5879L96.1205 43.8337C96.4877 44.96 97.3453 47.1222 98.3007 49.3359C98.5063 49.8129 99.5809 52.3133 100.688 54.942C101.796 57.5706 102.86 60.1381 103.076 60.6518C103.293 61.1656 103.691 62.0066 103.907 62.5205C104.122 63.0345 104.771 64.5541 105.36 65.9464C105.95 67.3387 106.506 68.7994 106.606 69.1647C107.103 70.9752 106.8 72.7061 105.879 73.9402C105.364 74.6303 104.388 75.5371 103.595 76.0166C103.302 76.1936 103.01 76.2795 102.972 76.328C102.928 76.3858 103.124 76.884 103.388 77.6776C104.248 80.2532 104.757 83.1949 104.737 85.0485C104.721 86.7515 104.721 86.6845 104.011 84.3218C103.39 82.257 102.793 80.6729 101.727 77.9891C101.233 76.7485 101.236 76.6946 101 76.6395C99.4183 76.2699 98.6772 76.0126 97.9892 75.7051C96.9507 75.2409 95.6885 74.5881 93.7328 73.4212C93.1816 73.0923 92.3539 72.5713 91.8641 72.2792C89.6612 70.9656 85.9477 69.1211 85.2199 68.9571C84.7969 68.8617 84.9474 69.087 85.6351 69.58C88.8285 71.8738 90.3026 73.9825 90.5145 76.5356C90.5885 77.4269 90.4467 77.718 89.9954 78.5081C89.5935 79.2124 89.1359 79.7262 88.1267 80.5845C87.0913 81.465 87.0793 81.4518 84.597 82.9722C83.4136 83.6971 82.0989 84.5581 81.6901 84.8409C79.5048 86.3531 77.977 88.0763 77.1222 89.9279L76.811 90.5508L77.0186 91.2775C77.8156 94.1713 79.4925 96.1787 81.6903 96.8835C82.9455 97.2861 85.0489 97.3947 86.4659 97.0912C87.6326 96.841 89.7119 95.973 90.2032 95.5339C90.2879 95.4579 90.3068 95.2874 90.3068 95.1187C90.3063 94.4645 90.4679 92.2854 90.6181 91.2775L90.8257 90.2393L89.7876 89.6164C88.9433 89.0778 88.8576 88.8778 88.8532 88.6821C88.8432 88.1744 89.3324 86.8667 89.5799 86.8134C89.649 86.8001 89.8377 86.8744 89.9952 86.9172C90.2799 86.9946 90.2842 86.9272 90.8257 86.0867C91.7531 84.6483 92.4515 83.3239 92.6944 82.4531C92.8256 81.9824 92.8343 81.9029 92.4868 81.8303C92.0539 81.7396 91.6266 81.2462 91.5524 80.6883C91.3348 79.0525 92.0275 78.0642 92.902 78.7158C93.0784 78.847 93.3124 78.9869 93.4211 79.131C93.6546 79.4407 93.8822 80.3134 93.9402 80.9997C93.98 81.4702 93.9203 81.4885 94.2515 81.7264C94.6699 82.0258 94.9065 82.3126 94.8744 82.6608C94.8412 83.0253 94.5545 83.0086 94.0439 82.6608L93.6286 82.3493L93.421 82.7646C93.0392 83.5463 91.5779 86.0036 91.1371 86.6058L90.7218 87.1249L91.5523 87.6439C91.9837 87.9286 92.361 88.1859 92.3828 88.2668C92.4436 88.498 92.2928 88.9531 91.8638 90.0317C91.4325 91.1165 91.3015 91.9705 91.2409 93.0424C91.2033 93.7086 91.2342 94.8307 91.3445 94.8072C91.6977 94.7308 95.0531 92.0287 96.2238 90.8622C97.2845 89.8054 98.4631 88.3572 99.2345 87.2287C100.156 85.8806 100.153 85.8544 99.8574 85.4638C99.7796 85.3608 99.4549 84.8772 99.1307 84.4256C98.4851 83.5263 98.2281 83.2223 96.6391 81.3112C96.0509 80.6038 95.195 79.5675 94.7704 79.0272L94.0437 78.0929L93.9401 77.2624C93.8909 76.4867 93.9733 75.812 94.1477 75.7051C94.1956 75.6752 94.7167 75.9971 95.1859 76.328C95.6551 76.6589 96.507 77.2255 97.1584 77.6776C97.8098 78.1297 98.4068 78.5567 98.4042 78.612C98.3942 78.8086 97.9729 78.8487 97.4698 78.7158C97.1894 78.6417 96.8757 78.6666 96.8469 78.7158C96.7655 78.856 97.564 79.9495 98.6118 81.2074C99.9742 82.8428 100.341 83.3042 100.688 84.3218C101.309 86.142 101.063 87.8163 99.8576 89.8241C98.5826 91.9473 95.8439 94.6606 92.6943 96.8835C91.764 97.5402 91.6689 97.6271 91.8638 98.337C92.1667 99.4388 93.1021 100.749 93.9401 101.348C95.4837 102.451 96.8679 101.928 98.508 99.5828C99.1778 98.625 99.7307 97.5993 100.792 95.2225C102.805 90.713 103.948 89.2558 108.267 86.0867C109.828 84.9409 109.727 84.9624 110.551 84.3218C110.882 84.0647 111.253 83.9118 111.277 83.9066C111.304 83.8999 111.542 83.7282 111.796 83.4913L112.212 82.9722L111.796 82.1417C110.685 80.011 110.04 78.0768 110.032 76.7433C110.025 75.5114 110.383 74.3421 110.966 73.8364C111.285 73.5597 112.28 73.2675 112.731 73.3174C113.472 73.3994 114.646 74.5099 115.43 75.8089C116.765 78.0206 116.752 80.7818 115.326 83.1799L114.911 83.9066L115.222 84.218C115.704 84.6492 116.641 85.0479 117.299 85.1524C118.04 85.27 119.351 85.1022 120.102 84.7371C120.99 84.3049 122.117 83.1763 122.489 82.4531L122.593 82.2455L121.036 78.1967C120.176 75.9578 119.307 73.605 119.063 73.0059C117.727 69.7209 116.892 67.6711 116.053 65.635C115.643 64.6421 114.017 60.849 113.561 59.7175C113.191 58.799 110.184 51.3949 108.059 46.2214C107.577 45.0481 107.149 43.907 107.124 43.7298C107.079 43.4146 107.346 41.9861 107.436 41.965C107.604 41.9264 109.643 44.2666 110.343 45.2871C110.907 46.1097 111.638 47.3785 111.692 47.571C111.776 47.8584 111.225 47.6537 110.654 47.1558C110.235 46.7904 110.218 46.8443 110.447 47.4672C110.558 47.7689 111.156 49.5435 111.796 51.3084C112.85 54.2151 113.377 55.4259 115.741 61.2747C116.138 62.2579 116.651 63.6061 116.883 64.1816C117.116 64.757 117.748 66.2009 118.233 67.3998C118.717 68.5987 119.411 70.5609 119.894 71.7601C121.008 74.525 121.599 75.7511 122.178 77.1585C122.516 77.982 122.732 78.626 123.008 79.7539C123.501 81.7708 123.556 82.8232 123.216 84.1142C122.898 85.3209 122.171 86.0849 120.932 86.8134C120.233 87.2245 120.048 87.3462 119.167 87.5401C118.414 87.7066 118.024 87.7903 117.61 87.7477C116.606 87.6454 115.542 86.9163 114.392 85.6714C114.08 85.3346 113.723 85.0375 113.665 85.0485C113.422 85.0937 111.193 86.6565 109.512 87.9554C107.845 89.2437 105.766 91.05 105.256 91.5889C104.113 92.7945 103.121 94.3622 101.415 98.0255C100.683 99.5958 99.6777 101.401 99.1306 102.074C98.4059 102.967 97.5687 103.388 96.4314 103.32C94.7343 103.218 93.0647 102.133 92.0711 100.517C91.6809 99.8824 91.1168 98.8492 91.0329 98.5446C90.9668 98.3064 90.9572 98.2405 89.891 98.6484C88.6727 99.1143 86.7387 99.6333 85.6345 99.7904C83.1924 100.138 81.1968 99.6127 79.6132 98.1293C78.3444 96.9409 77.5166 95.4256 76.8102 93.1462C76.5663 92.3646 76.3445 91.6476 76.2911 91.5889C76.219 91.5092 76.0466 91.6341 75.772 92.0042C75.5697 92.2766 75.2684 92.7415 75.0453 93.0424C74.474 93.813 74.1503 94.017 73.3842 94.1843C72.2393 94.4328 71.1565 94.2335 69.9583 93.4576C68.6867 92.6342 67.7887 91.3754 67.3629 89.8241C67.0187 88.5706 66.9164 87.4128 67.0516 85.5676C67.1589 84.1002 67.1875 83.9152 67.2592 83.3875C67.2951 83.1247 67.2758 82.8746 67.2592 82.8684C67.2426 82.8618 67.0376 82.8211 66.7401 82.7646C65.9921 82.6227 65.1749 82.3579 64.4562 81.9341C63.0227 81.0886 62.3645 80.1186 61.8608 78.3005C61.3244 76.3676 61.3437 74.2593 62.0684 71.4487L62.3798 70.3067L62.1721 69.9952C61.7459 69.3603 61.3389 68.4657 61.2378 67.7113C61.0033 65.9639 61.4076 64.2592 62.5874 61.2747L63.0027 60.2366L62.6913 59.7175C62.3611 58.9445 62.2347 57.7306 62.2761 56.603C62.296 56.1037 62.3595 55.6266 62.3798 55.5648C62.516 55.1439 66.3679 51.7603 69.1278 49.6473C72.6866 46.9228 76.6516 44.2882 80.1323 42.3802C80.3768 42.2464 80.9348 41.9039 81.3781 41.6535C82.3182 41.1225 85.2685 39.7 86.5689 39.0581C88.0696 38.3174 89.0589 38.2381 89.9948 38.8505C90.967 39.4867 91.0878 41.2057 90.41 43.626C89.9357 45.3197 89.4085 46.4618 88.0223 49.1283C87.6404 49.8627 87.1539 51.0269 86.8803 51.6198C86.6069 52.2128 86.3817 52.6709 86.3612 52.658C86.2805 52.6072 86.3207 51.7335 86.4648 50.997C86.6924 49.8324 87.1902 48.5402 88.3335 46.4291C89.0938 45.0252 89.9199 43.3312 89.9946 43.0031C90.0863 42.6004 89.9714 41.9021 89.6833 41.5497C89.5601 41.3999 89.2578 41.2042 89.0604 41.1345C88.72 41.0142 88.6299 41.108 87.2956 41.4459C85.1333 41.9946 84.2461 42.3413 80.2361 44.768C77.0999 46.6659 76.5742 47.0213 72.7614 49.6473C72.5032 49.8254 72.0256 50.17 71.7232 50.3741C68.498 52.5507 65.8428 54.6793 63.3141 57.1221C63.1829 57.249 63.0992 57.405 63.1065 57.4335C63.1131 57.4634 63.3533 57.5335 63.6256 57.6412C63.8983 57.7488 64.438 57.9806 64.8713 58.1602C65.3047 58.34 66.6758 58.91 67.882 59.406C69.0882 59.9021 70.4392 60.4627 70.8927 60.6518C71.3462 60.8409 72.1352 61.1042 72.5537 61.2747C72.9721 61.4451 73.7393 61.7567 74.3186 62.0014C74.8979 62.2463 75.8013 62.6331 76.2911 62.832C76.7809 63.031 77.4734 63.3016 77.8483 63.4549C80.2086 64.4197 80.0581 64.3729 80.2361 64.1816C80.5334 63.8623 81.8863 63.0059 82.7277 62.6243C83.2177 62.4021 84.0551 62.1604 84.7002 62.0014L85.7383 61.69L85.6346 61.3785C85.5732 61.2048 85.1325 60.3187 84.5965 59.406C83.1559 56.9536 82.2191 55.4466 81.7934 54.5267C81.2455 53.3431 80.7814 51.6234 80.7553 50.997C80.7287 50.3491 80.8353 49.2596 80.9629 49.2321C81.0612 49.2122 84.436 53.2002 84.3888 53.2809C84.3789 53.3042 84.0898 53.2346 83.7659 53.1771L83.143 53.0733L83.3507 53.4885C83.9027 54.9305 84.219 55.5234 84.7003 56.3954C85.6885 58.1865 86.6888 59.6139 87.7109 60.4442C88.3953 61.0001 89.7394 61.7533 90.6178 62.1052C91.3493 62.3983 91.4228 62.4709 91.6559 62.9358C91.9367 63.4956 92.2373 64.8286 92.175 65.2197V65.5312L91.5521 65.2197C90.8307 64.8205 90.0805 64.5939 89.0605 64.3892C87.9433 64.165 87.1386 64.1271 85.9461 64.3892C84.885 64.6221 84.3765 64.8479 83.6621 65.3235L83.2468 65.5312L84.9079 66.3617C87.4177 67.5984 91.8215 69.8981 93.1094 70.6181C95.1654 71.7677 96.8551 72.7286 97.4696 73.0059C98.2391 73.3531 99.3379 73.6732 99.5459 73.6288C99.6772 73.6022 99.7512 73.6055 98.6116 70.6181C97.7287 68.3042 96.0846 64.2287 95.3933 62.6243C94.2977 60.0812 91.2476 52.5042 91.033 51.7237C90.9546 51.4409 91.0497 51.1544 91.1367 50.6855L91.2404 49.9588L91.5516 50.2702C92.724 51.4066 93.9947 52.8463 94.6661 53.8C94.9408 54.1905 95.6595 55.4018 95.7042 55.5648C95.7142 55.607 95.3092 55.473 94.8737 55.2534C94.4383 55.0338 94.0674 54.8329 94.0432 54.8381C94.0166 54.8448 94.0944 55.0177 94.1469 55.1496C94.2001 55.2815 94.7047 56.5923 95.2889 58.0564C95.8729 59.5206 97.0965 62.443 97.9881 64.5968C99.7927 68.9565 100.659 71.0542 101.206 72.4868C101.409 73.0166 101.544 73.4743 101.622 73.525C101.699 73.5758 102.11 73.5698 102.452 73.525C102.965 73.4576 103.17 73.4233 103.698 73.1097C104.822 72.4404 105.801 71.1969 105.67 70.722C105.594 70.4502 103.697 65.5046 103.179 64.2854C102.955 63.7601 102.566 62.8394 102.348 62.3129C102.131 61.7864 101.536 60.3864 100.999 59.0946C100.462 57.8027 99.7728 56.2192 99.5453 55.6687C99.3178 55.1182 98.9324 54.2228 98.7148 53.6962C98.2977 52.6867 97.2847 50.1458 96.6385 48.6092C96.4275 48.1073 95.9613 47.1552 95.7041 46.5329C95.4473 45.9105 94.8315 44.2915 94.2507 43.0031C92.9464 40.1099 92.7408 39.7673 92.7973 38.7467C92.8206 38.3246 92.8808 37.882 92.9024 37.8123ZM99.8581 38.4352C100.061 38.5714 102.07 40.7913 102.661 41.5497C103.341 42.422 104.067 43.4862 104.322 44.0413L104.426 44.3527L104.218 44.2489C104.075 44.1735 103.71 43.9116 103.388 43.7298C103.065 43.5481 102.776 43.3975 102.765 43.4184C102.745 43.4556 103.431 45.2115 104.945 48.713C105.368 49.6906 106.279 51.6985 106.917 53.1771C107.555 54.6557 108.105 55.9726 108.163 56.0839L108.267 56.2916L108.37 56.0839C108.449 55.9594 108.594 55.563 108.682 55.2534L108.889 54.7343L108.266 54.1114C107.472 53.3281 107.334 53.0018 107.54 52.3466C107.81 51.4847 108.363 51.055 108.889 51.4122C109.558 51.8659 109.998 52.9289 109.928 54.1114C109.908 54.426 109.867 54.7258 109.928 54.8381C109.989 54.9491 110.129 55.1258 110.135 55.2534C110.142 55.4667 110.059 55.5132 109.824 55.461C109.542 55.3989 109.575 55.2896 109.201 56.1877C109.109 56.41 108.915 56.8727 108.786 57.1221L108.578 57.5373L108.889 58.2641C110.154 61.2262 110.777 64.1363 110.654 66.0502C110.602 66.8656 110.661 66.8674 110.551 66.4655C110.081 64.7776 108.847 61.5887 108.163 60.2366C107.596 59.1165 107.526 59.0898 107.125 59.6137C106.605 60.2915 105.822 61.2031 105.36 61.5862C105.285 61.648 105.191 61.6628 105.152 61.69C105.251 61.5036 105.556 61.0056 106.087 60.1327L107.125 58.2641L106.813 57.3297C103.953 50.1526 102.207 46.1339 100.481 42.4841C100.044 41.5615 99.6883 40.685 99.6501 40.5116C99.5045 39.8623 99.6481 38.2946 99.8581 38.4352ZM78.8873 39.0581C79.0059 39.0316 78.8141 39.6024 78.576 39.9925C78.2889 40.462 77.9617 40.7211 74.631 43.0031C71.8928 44.8792 69.4887 46.6354 68.5058 47.3634C68.151 47.6262 67.8021 47.8776 67.7791 47.8825C67.7559 47.8891 67.832 47.6815 67.8828 47.4672C67.936 47.2526 68.0041 46.9031 68.0905 46.7405C68.2586 46.4239 69.4865 45.4525 70.8935 44.4566C72.4122 43.3816 78.7557 39.0864 78.8873 39.0581ZM91.8643 45.0794C92.3605 44.9728 93.1037 45.0226 93.5253 45.2871C94.5153 45.9082 94.6805 47.2115 93.8366 48.0901C93.4716 48.4703 93.1719 48.5874 92.7984 48.5054C92.1794 48.3695 92.0172 48.2851 91.7603 47.1558C91.632 46.5954 91.5473 45.8736 91.5526 45.5985C91.5659 45.1521 91.647 45.1263 91.8643 45.0794ZM83.4552 45.3909C83.5153 45.4916 83.6658 45.9527 83.7664 46.6367C83.9222 47.693 84.089 48.1338 84.4931 48.4016C84.8698 48.651 84.9664 48.577 85.116 48.1939C85.1828 48.0232 85.2765 47.8924 85.3237 47.8825C85.4938 47.8459 85.5426 48.4905 85.4273 48.9206C85.2678 49.5147 84.8875 49.7635 84.5968 49.5435C83.8782 48.9999 83.3601 47.508 83.351 46.0138C83.3476 45.4938 83.3954 45.2902 83.4552 45.3909ZM92.6948 46.0138C92.3745 45.9789 92.1062 46.0007 92.0719 46.1176C92.0553 46.1615 92.0885 46.4836 92.1755 46.8443C92.2881 47.3444 92.3675 47.5252 92.4868 47.571C92.7246 47.665 93.4204 47.4112 93.6287 47.1558C93.8526 46.881 93.7935 46.5119 93.5251 46.3252C93.3202 46.1827 93.0151 46.0483 92.6948 46.0138ZM99.9619 47.2596L100.066 47.6748C100.268 48.9245 100.476 49.6826 100.688 50.0626C100.934 50.5074 101.225 50.8088 101.519 50.8931C101.682 50.9396 101.723 50.8798 101.83 50.4779C101.937 50.0776 102.046 50.0332 102.142 50.1664C102.43 50.5673 102.484 51.3169 102.245 51.7237C102.09 51.9894 101.685 52.0218 101.311 51.8275C100.631 51.4743 100.097 50.5116 99.9612 49.1283C99.9164 48.6652 99.9379 48.0669 99.9612 47.7787L99.9619 47.2596ZM114.704 47.2596L115.742 48.2977C117.285 49.8409 118.076 50.7075 118.649 51.6198C119.416 52.8433 119.39 52.9266 118.441 52.4504C118 52.2291 117.632 52.0305 117.611 52.0351C117.569 52.0451 117.557 52.0816 118.13 53.5924C118.923 55.6828 119.125 56.1784 121.867 62.5205C122.796 64.6691 123.721 66.9503 124.359 68.7495C124.949 70.4156 125.99 74.0819 126.02 74.667C126.04 75.0309 125.782 76.5885 125.708 76.9509C125.672 76.8237 125.299 75.9694 124.982 75.0822C124.664 74.1951 124.316 73.0763 124.151 72.5906C122.601 68.0423 122.37 67.5417 118.649 58.7831C118.009 57.2788 116.929 54.7536 116.261 53.1771C115.593 51.6007 114.932 50.2281 114.808 50.0626C114.464 49.6073 114.352 48.8572 114.496 47.9863L114.704 47.2596ZM74.6308 50.2702L74.7345 50.5817C74.8022 50.7468 74.9215 51.3339 74.9421 51.8275C74.9906 52.9909 75.1849 53.7841 75.565 54.2152C76.0067 54.7172 76.0838 54.7274 76.3955 54.4229L76.7068 54.1114L76.8105 54.5267C77.0613 55.439 76.2229 56.043 75.4609 55.5648C75.0461 55.3044 74.8585 54.8961 74.6303 53.8C74.4583 52.973 74.4001 51.5874 74.5266 50.7893L74.6308 50.2702ZM108.579 52.5542C108.055 52.5343 108.092 53.0154 108.682 53.3847C109.11 53.6528 109.318 53.6119 109.201 53.1771C109.112 52.8592 108.809 52.5628 108.579 52.5542ZM69.4401 53.1771C69.554 53.0608 69.7148 53.8794 69.7513 54.7343C69.7995 55.8405 69.9958 56.4625 70.3742 56.9145C70.8019 57.4259 70.9143 57.4779 71.2047 57.2259C71.3369 57.1116 71.4641 56.986 71.516 57.0183C71.6655 57.112 71.6698 57.7741 71.516 58.0564C71.3303 58.4001 70.7398 58.5807 70.374 58.3679C69.7937 58.0303 69.4511 57.1559 69.3358 55.7725C69.2674 54.9513 69.3371 53.2812 69.4401 53.1771ZM90.4109 54.2152C90.47 54.1853 90.4982 54.2053 90.6185 54.2152C91.1007 54.2495 91.3204 54.3701 91.449 54.8381C91.5135 55.0684 91.5732 55.3201 91.5526 55.3572C91.5327 55.3944 91.2898 55.3273 91.0335 55.2534C90.0985 54.9876 90.0938 55.0421 90.7223 57.5373L91.2414 59.6137L90.6185 59.0946C89.3485 57.9855 88.593 57.6 87.9193 57.745C87.3998 57.8566 86.9592 57.5639 86.7773 56.9145C86.6657 56.5228 86.764 56.4582 87.2964 56.4992C87.9437 56.549 88.8282 56.9108 89.5803 57.4335C89.928 57.6751 90.212 57.7912 90.2032 57.745C90.1966 57.6985 90.2099 57.6141 90.2032 57.5373C90.1966 57.4606 90.1586 57.0531 90.0995 56.7068C89.9304 55.6702 90.0098 55.0189 90.3071 54.4229C90.3546 54.3282 90.3524 54.2458 90.4109 54.2152ZM79.4064 55.3572C79.4848 55.3217 79.4924 55.3373 79.614 55.3572C80.2984 55.4629 80.687 55.9439 80.5483 56.603L80.4446 56.9145L80.0294 56.603C79.0014 56.0248 78.8146 56.6163 79.4065 58.7831C79.8193 60.2947 80.0509 61.7444 79.8217 61.7938C79.7835 61.8004 79.449 61.4732 79.095 61.0671C78.0335 59.8501 77.4659 59.4735 76.8111 59.6137C76.1406 59.7575 75.5404 59.1722 75.4615 58.2641C75.4316 57.9485 75.5329 57.9224 75.8767 57.8488C76.5323 57.7076 77.152 58.0843 78.3683 59.1984C79.1581 59.9218 79.2463 59.8572 78.9912 58.887C78.5769 57.3142 78.6128 56.0916 79.0949 55.5648C79.2105 55.4386 79.3283 55.3928 79.4064 55.3572ZM122.075 57.6412C122.13 57.6545 122.178 58.0402 122.282 58.7831C122.365 59.356 122.532 60.0116 122.594 60.2366C122.742 60.7818 123.063 61.4179 123.424 61.69L123.735 61.8976L123.839 61.69C123.982 61.354 124.229 61.4285 124.358 61.8976C124.494 62.3905 124.296 62.7558 123.943 62.832C123.758 62.8718 123.624 62.8486 123.32 62.6243C122.548 62.0577 122.108 60.9475 121.97 58.6793C121.926 57.952 122.019 57.6268 122.075 57.6412ZM97.8856 57.9526L97.9892 58.3679C98.3008 60.46 98.3291 60.7876 98.6121 61.2747C98.7872 61.5764 99.68 62.2474 99.8579 62.2091C99.9024 62.1991 99.9489 61.9536 99.9615 61.69C99.9848 61.194 99.9612 61.1172 100.169 61.2747C100.526 61.5451 100.721 62.6334 100.48 63.0396C100.322 63.31 99.89 63.4115 99.5461 63.2472C98.9051 62.9396 98.0801 61.5818 97.8851 60.4442C97.7539 59.685 97.7814 58.8242 97.8851 58.3679L97.8856 57.9526ZM111.485 59.406C111.528 59.5343 111.549 59.8881 111.589 60.4442C111.717 62.1902 112.124 63.1143 112.835 63.5587L113.146 63.6625L113.25 63.2472L113.457 62.832L113.561 63.351C113.653 63.7673 113.636 64.1243 113.561 64.3892C113.464 64.7178 113.441 64.7409 113.146 64.8045C112.885 64.8609 112.713 64.8515 112.523 64.7006C112.115 64.3754 111.859 63.8989 111.589 62.7281C111.34 61.6509 111.287 60.3553 111.381 59.6137C111.42 59.3011 111.444 59.2777 111.485 59.406ZM63.5226 60.6518L63.4188 60.9633C62.8108 62.4239 62.2929 64.3585 62.2769 65.3235C62.2603 66.2271 62.8729 67.693 63.315 67.9189C63.6436 68.0867 63.9618 67.9455 64.2494 67.3998C64.5919 66.749 64.8202 66.3797 64.8723 66.5693C64.9623 66.8906 64.952 67.7554 64.7686 68.3342C64.5162 69.1309 64.0488 69.8661 63.419 70.722C62.9955 71.2976 62.9038 71.4206 62.7961 72.0716C62.2234 75.5381 62.2613 77.2973 62.8998 78.7158C63.219 79.4249 63.9418 80.3071 64.3532 80.5845C65.1126 81.0965 66.595 81.1185 67.3638 80.5845C68.6939 79.6607 71.274 76.4903 72.9699 73.7326C74.5201 71.2119 76.8175 67.6558 77.0187 67.3998L77.2263 67.0884L74.0081 65.5312C70.2494 63.7962 65.5997 61.6511 64.3532 61.0671L63.5226 60.6518ZM69.5439 65.0121C69.6399 65.0221 69.7242 65.0324 69.8551 65.1159L70.1664 65.3235L70.374 66.4655L70.6853 67.5037L70.9966 67.8151C71.6998 68.31 72.225 69.0466 72.0347 69.3724C71.9766 69.472 71.845 69.4944 71.5157 69.2685C70.6006 68.6419 70.6811 68.6073 70.3737 69.58C69.6759 71.7881 68.2221 74.1063 65.9096 76.7433L65.2867 77.47L65.702 76.7433C65.9266 76.3489 66.7059 75.028 67.4668 73.7326C68.7427 71.5605 69.5139 70.064 69.8546 69.0609L69.9583 68.6456L69.5431 68.438C68.9695 68.0967 68.5583 67.5571 68.4011 66.9846C68.1569 66.0946 68.4944 65.367 69.2316 65.1159C69.3904 65.0618 69.4485 65.0028 69.5439 65.0121ZM93.733 65.1159C93.7795 65.1392 93.7984 65.4824 93.8366 66.0502C93.9475 67.6806 94.2299 68.422 94.8747 68.8533L95.0824 68.9571L95.29 68.5418C95.4402 68.2568 95.5102 68.1735 95.6012 68.2304C95.7883 68.3463 95.7909 69.0829 95.6012 69.4762C95.388 69.9145 95.1423 70.0698 94.7707 69.8914C94.2462 69.6396 93.9873 69.3736 93.7326 68.438C93.4983 67.5779 93.4379 66.867 93.5249 65.8426C93.5701 65.319 93.6864 65.0915 93.733 65.1159ZM69.3362 66.2579C69.2658 66.2745 69.2226 66.3386 69.1286 66.4655C68.9994 66.6396 68.9974 66.7349 69.1286 66.8808C69.2957 67.0658 69.7337 67.2347 69.9591 67.1922C70.0654 67.1723 70.1541 67.0301 70.0628 66.777C69.9867 66.569 69.7933 66.435 69.6475 66.3617C69.503 66.2893 69.4067 66.2416 69.3362 66.2579ZM112.108 66.4655C112.302 66.334 112.72 66.5064 113.977 67.296L115.119 68.0228L114.911 68.7495C114.687 69.537 114.409 69.9828 114.185 70.0991C114.091 70.1482 113.652 69.9177 112.835 69.4762C112.156 69.1092 111.604 68.8501 111.589 68.8533C111.573 68.8565 111.384 69.2733 111.174 69.7876C110.964 70.3019 110.711 70.71 110.655 70.722C110.301 70.798 108.147 69.5856 108.06 69.2685C108.043 69.2041 108.111 68.6894 108.267 68.1266L108.578 67.0884L108.89 67.1922C109.059 67.2477 109.651 67.6155 110.239 67.9189L111.277 68.438L111.485 68.2304C111.557 68.0975 111.675 67.6757 111.796 67.296C111.918 66.9164 112.039 66.5131 112.108 66.4655ZM103.907 67.0884C103.943 67.1117 103.937 67.299 103.907 67.5037C103.856 67.8364 103.729 68.0719 102.557 69.1647C101.836 69.8374 101.138 70.4853 101 70.6181L100.792 70.8258V70.5143C100.779 70.3383 100.749 70.1717 100.792 70.0991C100.897 69.9223 102.936 67.8734 103.492 67.3998C103.734 67.1932 103.872 67.0667 103.907 67.0884ZM79.614 68.438L79.1987 68.8533C78.0118 70.0452 77.1138 71.3546 74.0079 76.328C73.5743 77.0225 72.4263 78.7045 71.9316 79.3387C71.0185 80.5092 69.1527 82.3391 68.5057 82.6608C68.337 82.7448 68.1821 82.88 68.0905 83.3875C67.6942 85.5857 67.7185 87.9585 68.0905 89.305C68.521 90.8653 69.6647 92.4417 70.6858 92.7309C71.4441 92.9459 72.2451 92.6492 73.0736 92.0042C73.5994 91.5947 73.7364 91.428 74.8385 89.5126C76.048 87.4106 76.6762 86.5679 77.7453 85.4638C78.7637 84.4121 80.9377 82.7474 82.8323 81.5188C85.5989 79.7248 87.6586 78.055 88.9574 76.6395C89.3811 76.1778 89.6887 75.8256 89.6841 75.8089C89.6081 75.5398 88.6362 74.4281 87.9193 73.7326C86.3539 72.214 84.1411 70.7216 80.8598 69.0609L79.614 68.438ZM82.0018 73.9402C82.1254 73.8143 82.7443 74.0505 83.8705 74.7708L85.0124 75.4975L84.9087 75.9128C84.5502 77.2174 84.2843 77.5195 83.9744 77.5738C83.9119 77.5838 83.5217 77.421 83.04 77.1585C81.5754 76.3608 81.4595 76.3511 81.379 76.5356C81.3408 76.6233 81.1428 77.0341 80.9637 77.47C80.785 77.9058 80.6674 78.2972 80.6525 78.3005C80.3674 78.362 78.2929 77.3273 77.9533 76.9509C77.8413 76.827 77.8436 76.6023 78.0569 75.8089C78.1987 75.2729 78.3406 74.7168 78.3682 74.667C78.442 74.5337 78.7799 74.6688 80.0293 75.2899C80.6479 75.5975 81.1384 75.816 81.1712 75.8089C81.2663 75.789 81.4447 75.4105 81.6903 74.667C81.8152 74.2885 81.9652 73.9783 82.0018 73.9402ZM112.108 75.9128C111.869 75.9828 111.662 76.1798 111.485 76.4318C110.987 77.1444 110.933 77.8498 111.382 78.9234C111.816 79.9652 112.828 81.4258 113.354 81.8303C113.471 81.9199 113.919 81.4921 114.704 80.6883C115.146 80.2351 115.597 79.5028 115.534 79.2349C115.218 77.8819 114.025 76.411 112.939 76.0166C112.634 75.9056 112.348 75.8423 112.108 75.9128ZM118.13 76.5356C118.16 76.6453 118.221 76.8625 118.233 77.2624C118.281 78.8003 118.671 79.9625 119.375 80.3768C119.694 80.5639 119.815 80.4034 119.791 79.9616C119.774 79.6619 119.913 79.5067 119.998 79.7539C120.167 80.2492 120.134 80.7497 119.895 81.2074C119.807 81.3768 119.717 81.4676 119.479 81.5188C119.194 81.5803 119.066 81.6246 118.856 81.415C118.501 81.06 118.263 80.3103 118.13 79.3387C118.023 78.5661 117.962 77.4327 118.026 76.7433C118.049 76.4838 118.101 76.426 118.13 76.5356ZM76.2919 78.5081C76.4982 78.4982 76.771 78.6645 77.0186 78.8196C77.3666 79.0382 77.4537 79.0784 77.5377 79.4425C77.5899 79.6701 77.5543 79.9092 77.5377 79.9616C77.4812 80.1543 77.263 80.1049 76.9148 79.8577C76.7175 79.7176 76.4646 79.6352 76.3957 79.6501C76.2309 79.6857 76.2415 80.337 76.4993 81.7264C76.7256 82.9357 76.7784 83.7891 76.707 84.1142C76.6631 84.3122 76.7073 84.2971 76.2917 83.8027C76.0449 83.5091 75.576 83.0145 75.2535 82.7646C74.6727 82.3143 74.5823 82.328 74.2154 82.4531C73.8765 82.5684 73.8109 82.4943 73.3849 82.2455C72.8813 81.9522 72.8669 81.764 72.8658 81.1035C72.8646 80.6532 72.9957 80.5123 73.3849 80.5845C73.6978 80.6423 74.7829 81.2874 75.565 81.9341C76.0843 82.3635 76.2594 82.4081 76.1879 82.1417C76.1679 82.055 75.9849 81.4978 75.8766 80.8959C75.7022 79.9739 75.7793 79.7645 75.8766 79.2349C75.9912 78.6097 75.9633 78.5239 76.2919 78.5081ZM106.918 78.612C107.018 78.6124 107.174 78.6097 107.229 78.7158C107.5 79.2398 107.523 79.4751 107.332 79.5463C107.218 79.5888 107.015 79.536 106.917 79.4425C106.762 79.2903 106.775 79.3108 106.502 79.5463C106.185 79.8177 106.22 79.912 106.398 80.1692C106.674 80.5672 107.519 80.575 108.163 80.1692C108.791 79.7732 108.942 79.7718 108.994 79.9616C109.081 80.2705 108.687 80.7828 108.059 81.3112C107.722 81.5952 107.386 81.9296 107.229 82.1417C106.945 82.5247 106.326 82.9831 106.294 82.8684C106.278 82.804 106.503 82.3505 106.71 81.9341C106.887 81.5783 106.846 81.4577 106.294 80.9997C105.693 80.5004 105.617 80.1814 105.879 79.6501C106.215 78.971 106.615 78.6106 106.918 78.612ZM92.1757 79.8577C92.1099 79.9009 92.0514 80.0373 92.072 80.1692C92.1175 80.4459 92.7373 80.85 93.0063 80.7921C93.1615 80.7585 93.236 80.7652 93.1101 80.4806C92.9157 80.0447 92.3734 79.7285 92.1757 79.8577ZM88.4384 83.3875C88.5168 83.3576 88.5131 83.4895 88.542 83.5951C88.6174 83.8615 88.2606 84.5095 87.9191 84.8409C87.745 85.0093 86.6206 85.9531 85.3237 86.9172C82.8648 88.7452 81.2475 90.0791 80.9634 90.447L80.7558 90.6546L81.171 90.966C81.8418 91.6067 81.9804 92.2917 81.3787 92.108C81.2671 92.0738 80.9544 91.9135 80.7558 91.7966C80.4319 91.6055 80.4618 91.5162 80.3405 91.0699C80.2601 90.7778 80.1947 90.4709 80.2369 90.2393C80.3588 89.499 80.5722 89.2204 82.7285 87.6439C83.8459 86.827 84.9965 86.0521 85.2201 85.8791C85.4436 85.706 85.9774 85.2064 86.4659 84.8409C86.9543 84.4755 87.6338 84.0266 87.9193 83.8027C88.2246 83.5632 88.3599 83.4189 88.4384 83.3875ZM70.9973 83.9066C71.0139 83.9916 70.9945 84.2508 70.9973 84.6333C71.0039 86.286 71.3239 87.2231 71.8278 87.6439C71.976 87.7675 71.9956 87.7735 72.1391 87.6439C72.2314 87.5606 72.3849 87.4091 72.4503 87.2287L72.554 86.9172L72.6576 87.4363C72.7892 87.9107 72.7749 88.0832 72.6576 88.3706C72.4882 88.7841 72.361 88.8636 72.0347 88.8897C71.6588 88.9196 71.2681 88.6861 70.9966 88.163C70.7873 87.7606 70.7485 87.5344 70.6853 86.7096C70.6096 85.7265 70.702 84.4241 70.893 84.0104C70.9418 83.9044 70.9817 83.8215 70.9973 83.9066ZM94.252 84.6333C94.3643 84.5442 94.5713 84.5848 94.9788 84.6333C96.049 84.7608 96.8238 85.3945 96.9512 86.1905C97.0968 87.0847 96.4627 87.9777 95.6016 88.163C95.196 88.2504 95.1569 88.2359 94.8749 88.0592C94.6122 87.8944 94.4399 87.8496 94.3559 87.5401C94.2246 87.0665 94.1838 86.103 94.1482 85.2562C94.1316 84.895 94.1384 84.7225 94.252 84.6333ZM94.6673 85.5676C94.4414 85.6288 94.435 85.8874 94.5636 86.502C94.6772 87.0471 94.7201 87.1312 94.8749 87.2287C95.1301 87.3888 95.6763 87.324 96.0169 87.021C96.1697 86.8848 96.3624 86.6968 96.4322 86.6058C96.5544 86.4466 96.5189 86.4317 96.2245 86.1905C95.8386 85.8746 95.4426 85.632 94.9788 85.5676C94.8562 85.5507 94.7424 85.5474 94.6673 85.5676ZM116.157 88.7859C116.167 88.8058 116.249 88.7431 116.261 88.7859C116.294 88.8892 116.329 89.3976 116.364 89.9279C116.453 91.1776 116.626 91.8835 117.091 92.3157C117.497 92.693 117.655 92.6112 117.818 92.0042C117.882 91.7663 117.965 91.4639 118.025 91.3813C118.124 91.2454 118.178 91.2978 118.233 91.6928C118.29 92.1086 118.203 92.8384 118.025 93.25C117.922 93.4918 117.527 93.6537 117.195 93.5614C116.544 93.3807 116.098 91.8464 116.053 89.8241C116.043 89.4145 116.124 88.9288 116.157 88.7859ZM86.1544 89.4088C86.3291 89.3988 86.5792 89.4563 86.8811 89.6164C87.4372 89.9114 87.5703 90.029 87.504 90.5508L87.4003 90.8622L86.8812 90.6546C86.2684 90.3888 86.0679 90.3568 86.0507 90.5508C86.0476 90.6169 86.3151 91.3805 86.5698 92.2118C86.9495 93.4482 86.9752 93.787 86.985 94.2881C86.9917 94.625 87.0149 94.963 86.985 95.0149C86.9551 95.0687 86.7458 94.9773 86.5698 94.8072C86.399 94.6428 86.1325 94.379 85.9469 94.1843C85.2705 93.476 84.6128 93.1349 84.0782 93.25C83.6935 93.3327 83.4079 93.1068 83.2477 92.5233C83.0673 91.866 83.1663 91.7552 83.4553 91.6928C83.895 91.5981 84.8142 92.1045 85.8431 93.0424C86.0138 93.1978 86.2278 93.3601 86.2583 93.3538C86.3689 93.3306 86.3002 92.9147 86.0507 92.0042C85.7889 91.0468 85.6984 90.1602 85.8431 89.7203C85.9019 89.5379 85.98 89.4194 86.1544 89.4088ZM112.939 91.4851C113.269 91.414 113.768 91.6469 114.081 92.0042C114.342 92.3012 114.364 92.2916 114.288 92.6271C114.245 92.8158 114.213 93.0362 114.185 93.0424C114.155 93.049 113.847 92.956 113.562 92.8347C112.992 92.5929 112.683 92.568 112.628 92.8347C112.608 92.9304 112.755 93.6234 112.939 94.392C113.253 95.7233 113.404 97.0356 113.25 97.2988C113.22 97.3513 112.873 97.1114 112.523 96.6759C111.712 95.6655 111.104 95.1276 110.447 95.1187C109.781 95.1087 109.646 95.0954 109.305 94.7034C108.949 94.2952 108.802 93.7708 108.89 93.3538C108.942 93.104 108.986 93.1402 109.201 93.1462C109.987 93.1661 110.833 93.6711 112.108 95.0149L112.731 95.6378L112.627 95.2225C112.597 95.0006 112.512 94.4125 112.42 93.8729C112.319 93.3346 112.291 92.7247 112.316 92.5233C112.38 92.0091 112.657 91.5459 112.939 91.4851ZM75.4614 93.7691C75.4813 93.7824 75.4846 94.1179 75.4614 94.4958C75.4062 95.3574 75.5152 96.1081 75.8766 96.4683C76.163 96.754 76.3039 96.7281 76.6033 96.4683C76.7203 96.367 76.7718 96.3399 76.811 96.3645C76.9233 96.4352 77.0655 96.8559 77.0186 97.0912C76.8801 97.7548 76.4974 97.9622 75.9805 97.7141C75.418 97.444 74.9858 96.3523 75.0461 95.1187C75.0727 94.5641 75.3657 93.709 75.4614 93.7691ZM106.087 96.1568C106.282 96.1153 106.661 96.3937 106.71 96.5721C106.749 96.715 106.737 96.7425 106.502 96.7797C106.049 96.8518 106.055 96.7997 105.983 97.0912L105.88 97.4026V97.0912C105.856 96.7271 105.953 96.1858 106.087 96.1568ZM108.682 97.6103C108.761 97.576 108.789 97.6372 108.89 97.7141C109.002 97.7988 109.03 97.7988 108.89 97.9217C108.677 98.1094 108.586 98.3045 108.682 98.4408C108.807 98.6165 109.013 98.5629 109.409 98.337C109.618 98.218 109.795 98.1111 109.824 98.1293C109.968 98.219 109.608 98.7802 108.994 99.2713C108.061 100.018 107.688 100.251 107.333 100.206C107.126 100.179 106.926 100.248 106.606 100.413C106.074 100.688 105.747 100.697 105.36 100.621C105.198 100.588 104.949 100.657 104.737 100.725C104.438 100.82 104.232 100.831 104.011 100.725C103.73 100.589 103.81 100.567 103.803 100.102C103.79 99.1729 104.061 98.649 104.426 98.9599C104.663 99.1615 104.65 99.1984 104.322 99.4789C103.911 99.8314 103.806 100.116 104.115 100.309C104.248 100.393 104.456 100.457 104.53 100.413C104.929 100.177 105.394 99.7832 105.464 99.6866C105.525 99.6022 105.451 99.4909 105.257 99.1675C104.966 98.6867 104.941 98.6616 105.257 98.7522C105.466 98.8124 105.55 98.8605 105.672 99.4789C105.812 100.199 105.877 100.207 106.295 99.998C106.513 99.8887 106.548 99.638 106.606 98.856C106.639 98.4096 106.716 98.2922 106.917 98.1293C107.194 97.9054 107.482 97.9157 107.54 98.1293C107.56 98.2114 107.45 98.2062 107.333 98.2331C107.093 98.289 106.805 98.7453 106.917 98.856C106.962 98.9002 107.105 98.8826 107.229 98.856C107.442 98.8105 107.492 98.8213 107.54 99.1675C107.589 99.5261 107.596 99.5342 107.851 99.4789C107.996 99.449 108.16 99.376 108.266 99.2713C108.435 99.1065 108.473 99.0231 108.37 98.6484C108.277 98.3122 108.252 98.1365 108.37 97.9217C108.455 97.7649 108.604 97.6441 108.682 97.6103ZM88.4384 99.4789C88.4683 99.4723 88.5423 99.8971 88.646 100.413C88.8546 101.43 89.0761 101.84 89.5803 102.178L89.8916 102.386L90.0992 101.971C90.3573 101.541 90.4002 101.49 90.5145 102.074C90.5749 102.379 90.3544 103.184 90.2032 103.216C90.1368 103.23 90.0541 103.287 89.9956 103.32C89.9365 103.353 89.7872 103.322 89.6842 103.32C89.5809 103.317 89.371 103.272 89.269 103.216C89.0148 103.077 88.6676 102.427 88.5423 101.971C88.3243 101.176 88.2413 99.5212 88.4384 99.4789Z" fill="#673E00"/>
</svg>
